<svg width="398" height="214" viewBox="0 0 398 214" fill="none" xmlns="http://www.w3.org/2000/svg">
<path d="M320.873 0C331.73 0.000181502 343.179 4.6219 353.417 11.0195C363.7 17.4448 373.06 25.8471 379.794 33.8369C390.293 46.2916 395.249 57.722 396.946 70.1523C398.621 82.4237 397.088 95.5192 394.973 111.107C393.293 123.497 387.071 137.156 381.433 147.535C378.592 152.765 375.855 157.242 373.827 160.413C372.812 161.999 371.973 163.262 371.385 164.131C371.092 164.565 370.861 164.901 370.702 165.131C370.622 165.245 370.56 165.334 370.518 165.395C370.497 165.425 370.481 165.449 370.469 165.465C370.464 165.473 370.459 165.479 370.456 165.483C370.454 165.486 370.453 165.488 370.452 165.489L370.451 165.491L368 163.76L370.45 165.492L370.43 165.52L370.411 165.546L368 163.76L370.41 165.548L370.408 165.55C370.407 165.551 370.405 165.553 370.403 165.556C370.399 165.561 370.393 165.569 370.386 165.578C370.372 165.597 370.352 165.624 370.326 165.659C370.273 165.729 370.196 165.832 370.096 165.964C369.896 166.228 369.601 166.612 369.221 167.099C368.461 168.073 367.354 169.462 365.961 171.136C363.179 174.48 359.236 178.978 354.602 183.584C349.976 188.182 344.61 192.939 338.979 196.765C333.383 200.566 327.315 203.593 321.306 204.469C293.965 208.453 269.55 191.193 263.053 164.469C257.419 141.294 268.971 125.015 284.151 108.663C289.903 102.467 298.915 96.9409 306.245 93.0352C309.952 91.0595 313.314 89.4551 315.749 88.3438C316.968 87.7878 317.958 87.3536 318.646 87.0576C318.819 86.9832 318.973 86.9173 319.107 86.8604C319.259 85.3457 320.538 84.1631 322.092 84.1631C323.749 84.1632 325.092 85.5064 325.092 87.1631V134.548C325.092 136.205 323.749 137.548 322.092 137.548C320.435 137.548 319.092 136.205 319.092 134.548V93.4189C318.824 93.5393 318.539 93.6656 318.241 93.8018C315.888 94.8752 312.641 96.4262 309.066 98.3311C301.83 102.187 293.579 107.327 288.548 112.745C273.526 128.926 264.031 143.091 268.883 163.051C274.679 186.891 296.289 202.051 320.441 198.531C325.165 197.843 330.355 195.37 335.608 191.802C340.825 188.257 345.9 183.775 350.372 179.329C354.837 174.892 358.651 170.541 361.35 167.298C362.698 165.678 363.764 164.338 364.491 163.407C364.854 162.942 365.132 162.578 365.318 162.334C365.411 162.212 365.481 162.119 365.527 162.059C365.549 162.028 365.566 162.006 365.577 161.991C365.584 161.981 365.592 161.968 365.602 161.954C365.639 161.902 365.695 161.822 365.768 161.716C365.915 161.503 366.134 161.185 366.414 160.77C366.976 159.938 367.787 158.719 368.772 157.18C370.742 154.099 373.403 149.747 376.161 144.671C381.72 134.436 387.5 121.567 389.028 110.301C391.157 94.6015 392.548 82.3014 391 70.9639C389.474 59.7851 385.058 49.3915 375.206 37.7041C368.856 30.1699 359.966 22.1863 350.238 16.1074C340.466 10.0011 330.144 6.00018 320.873 6C308.6 6 300.409 7.08239 292.853 10.1094C285.252 13.1547 278.047 18.2637 267.899 26.7959C255.011 37.6316 244.373 53.8737 235.679 72.3828C227.001 90.8592 220.355 111.391 215.351 130.602C210.35 149.802 207.006 167.618 204.913 180.637C203.866 187.144 203.133 192.448 202.663 196.119C202.427 197.955 202.257 199.382 202.146 200.348C202.091 200.83 202.05 201.198 202.024 201.443C202.011 201.566 202 201.658 201.994 201.719C201.99 201.749 201.988 201.772 201.987 201.786C201.986 201.793 201.985 201.798 201.985 201.802V201.806C201.905 202.581 201.534 203.253 200.996 203.734C201.21 205.417 201.368 206.741 201.474 207.664C201.531 208.159 201.573 208.539 201.601 208.796C201.615 208.925 201.625 209.023 201.632 209.09C201.636 209.123 201.638 209.149 201.64 209.166C201.641 209.174 201.642 209.181 201.642 209.186C201.642 209.188 201.643 209.19 201.643 209.191C201.643 209.193 201.633 209.195 198.659 209.5L201.643 209.194C201.812 210.842 200.612 212.315 198.964 212.484C197.316 212.653 195.843 211.454 195.674 209.806V209.802C195.674 209.798 195.673 209.793 195.672 209.786C195.671 209.772 195.669 209.749 195.665 209.719C195.659 209.658 195.648 209.566 195.635 209.443C195.609 209.198 195.568 208.83 195.513 208.348C195.402 207.382 195.232 205.955 194.997 204.119C194.526 200.448 193.793 195.144 192.747 188.637C190.653 175.618 187.309 157.802 182.308 138.602C177.304 119.391 170.658 98.8592 161.98 80.3828C153.286 61.8737 142.648 45.6316 129.76 34.7959C119.612 26.2637 112.407 21.1547 104.806 18.1094C97.2504 15.0823 89.0592 14 76.7856 14C67.5154 14.0001 57.1934 18.001 47.4213 24.1074C37.6934 30.1863 28.8033 38.1698 22.4526 45.7041C12.6011 57.3916 8.18497 67.7851 6.65863 78.9639C5.11064 90.3014 6.5018 102.601 8.63129 118.301C10.1595 129.567 15.9387 142.436 21.4985 152.671C24.2562 157.748 26.9168 162.099 28.8871 165.18C29.8717 166.719 30.6826 167.938 31.2446 168.77C31.5254 169.185 31.744 169.503 31.8911 169.716C31.9646 169.822 32.0205 169.902 32.0571 169.954C32.0671 169.968 32.0753 169.981 32.0825 169.991C32.0931 170.006 32.1096 170.028 32.1323 170.059C32.1779 170.119 32.2485 170.212 32.3412 170.334C32.5269 170.578 32.8052 170.942 33.1684 171.407C33.8951 172.338 34.9611 173.678 36.309 175.298C39.0083 178.541 42.8223 182.891 47.2866 187.329C51.7589 191.775 56.8336 196.257 62.0512 199.802C67.3041 203.37 72.4936 205.843 77.2182 206.531C101.37 210.051 122.98 194.891 128.776 171.051C133.628 151.091 124.133 136.926 109.111 120.745C104.081 115.327 95.8295 110.187 88.5932 106.331C85.0184 104.426 81.771 102.875 79.4184 101.802C79.12 101.666 78.835 101.539 78.5668 101.419V142.548C78.5668 144.205 77.2235 145.548 75.5668 145.548C73.91 145.548 72.5668 144.205 72.5668 142.548V95.1631C72.5669 93.5063 73.91 92.1631 75.5668 92.1631C77.1213 92.1632 78.3993 93.3459 78.5512 94.8604C78.6853 94.9174 78.8399 94.9831 79.0131 95.0576C79.7012 95.3537 80.6911 95.7878 81.9096 96.3438C84.3452 97.4551 87.7068 99.0594 91.4145 101.035C98.7441 104.941 107.756 110.467 113.508 116.663C128.688 133.015 140.24 149.294 134.606 172.469C128.109 199.193 103.694 216.453 76.353 212.469C70.3441 211.593 64.2759 208.566 58.6801 204.765C53.0489 200.939 47.683 196.182 43.0571 191.584C38.4233 186.978 34.4804 182.48 31.6977 179.136C30.3049 177.462 29.1983 176.073 28.4379 175.099C28.0578 174.612 27.7635 174.228 27.5629 173.964C27.4627 173.832 27.3861 173.729 27.3334 173.659C27.3072 173.624 27.287 173.597 27.2729 173.578C27.2659 173.569 27.2602 173.561 27.2563 173.556C27.2545 173.553 27.2526 173.551 27.2514 173.55L27.2495 173.548L29.6586 171.76L27.2485 173.546L27.2289 173.52L27.2094 173.492L29.6586 171.76L27.2084 173.491L27.2075 173.489C27.2065 173.488 27.2051 173.486 27.2036 173.483C27.2004 173.479 27.1955 173.473 27.1899 173.465C27.1785 173.449 27.1622 173.425 27.1411 173.395C27.0988 173.334 27.0369 173.246 26.9575 173.131C26.7985 172.901 26.5674 172.565 26.2739 172.131C25.6863 171.262 24.8472 169.999 23.8325 168.413C21.8042 165.242 19.067 160.765 16.226 155.535C10.588 145.156 4.36654 131.497 2.68597 119.107C0.571544 103.519 -0.962133 90.4237 0.713318 78.1523C2.41055 65.7219 7.36644 54.2917 17.8647 41.8369C24.5995 33.847 33.9594 25.4448 44.2416 19.0195C54.4798 12.6219 65.9289 8.00006 76.7856 8C89.3828 8.00001 98.4539 9.1002 107.038 12.5391C115.576 15.9597 123.389 21.6008 133.622 30.2041C147.448 41.8292 158.539 58.9427 167.411 77.832C176.298 96.7544 183.055 117.666 188.115 137.09C192.813 155.128 196.061 171.94 198.194 184.777C198.436 183.175 198.701 181.475 198.989 179.685C201.103 166.535 204.483 148.524 209.544 129.09C214.604 109.666 221.361 88.7544 230.248 69.832C239.12 50.9427 250.211 33.8292 264.038 22.2041C274.27 13.6009 282.084 7.9597 290.622 4.53906C299.205 1.1003 308.276 -2.25696e-06 320.873 0Z" fill="black"/>
</svg>
