<?xml version="1.0" encoding="UTF-8"?>
<svg version="1.1" xmlns="http://www.w3.org/2000/svg" width="256" height="256">
<path d="M0 0 C2.97412902 2.24746513 5.51645736 4.88530702 8.11669922 7.54907227 C8.90761459 8.33925751 9.69852997 9.12944275 10.51341248 9.943573 C13.12253163 12.5561732 15.71349865 15.1860317 18.3046875 17.81640625 C20.11105965 19.63210454 21.9185395 21.44670144 23.7270813 23.26023865 C27.99673571 27.5470277 32.25506611 31.84475757 36.50810444 36.14800924 C41.35192778 41.04776927 46.21000015 45.93329578 51.069309 50.81769097 C61.0621176 60.86272626 71.03694022 70.92546416 81 81 C84.01225866 79.64989539 86.09498779 78.15025944 88.4152832 75.81176758 C89.07130524 75.15560455 89.72732727 74.49944153 90.40322876 73.82339478 C91.11192108 73.10436981 91.8206134 72.38534485 92.55078125 71.64453125 C93.30571869 70.88667328 94.06065613 70.12881531 94.83847046 69.34799194 C96.47651817 67.70233498 98.11225126 66.0543716 99.74594116 64.40438843 C102.33024306 61.79458184 104.92072234 59.19105465 107.51293945 56.58911133 C113.0142224 51.06495795 118.50765669 45.53303975 124 40 C130.36374944 33.58909729 136.73064979 27.18139379 143.10604858 20.78207397 C145.66050165 18.2146356 148.20886578 15.64125535 150.75708008 13.06762695 C152.32083018 11.49661274 153.88486122 9.92587811 155.44921875 8.35546875 C156.15791107 7.63644379 156.86660339 6.91741882 157.59677124 6.17660522 C158.25279327 5.5204422 158.90881531 4.86427917 159.5847168 4.18823242 C160.15103317 3.61747482 160.71734955 3.04671722 161.30082703 2.45866394 C163.8218754 0.29445676 165.9354982 -0.97314852 169.28417969 -1.05761719 C173.55143478 0.60417255 176.26961645 3.69995221 179.453125 6.921875 C180.15395203 7.61887512 180.85477905 8.31587524 181.57684326 9.03399658 C183.05419926 10.5086336 184.52652781 11.98832216 185.99414062 13.47265625 C188.24184865 15.74177102 190.51007072 17.98878093 192.78125 20.234375 C194.21482595 21.67059423 195.64716056 23.1080538 197.078125 24.546875 C197.75723938 25.21789246 198.43635376 25.88890991 199.13604736 26.58026123 C199.76049744 27.21731995 200.38494751 27.85437866 201.02832031 28.51074219 C201.57949524 29.06509949 202.13067017 29.61945679 202.69854736 30.19061279 C204.36091265 32.50177064 204.73283331 34.17054141 205 37 C203.95244694 38.84545994 203.95244694 38.84545994 202.24879456 40.614151 C201.59522539 41.30495821 200.94165623 41.99576542 200.26828194 42.70750618 C199.14548238 43.84229062 199.14548238 43.84229062 198 45 C197.20081587 45.82660063 196.40163174 46.65320126 195.5782299 47.50485039 C192.74488403 50.41444566 189.8851062 53.29606213 187.01928711 56.17358398 C185.92438408 57.2764056 184.82965736 58.37940229 183.73509216 59.4825592 C180.16953996 63.07408909 176.59874996 66.6603864 173.02734375 70.24609375 C171.79325879 71.48554499 170.55917946 72.72500183 169.32510567 73.96446419 C164.19458883 79.11655788 159.0626545 84.26723264 153.92699337 89.41419888 C146.58350207 96.77396935 139.24866901 104.14213571 131.92548174 111.52211136 C126.7629086 116.72334627 121.59082204 121.91499738 116.4115296 127.09958321 C113.32222493 130.19254118 110.23724611 133.28954356 107.16236687 136.39684868 C104.27493821 139.3142979 101.37592231 142.21970701 98.46755409 145.11627769 C97.40299836 146.18061232 96.34271071 147.24923576 95.28707123 148.3224144 C93.84480498 149.78733043 92.38792172 151.23598031 90.92637634 152.68162537 C89.7094203 153.90354662 89.7094203 153.90354662 88.4678793 155.15015316 C85.52868804 157.35328103 83.66243764 157.92764653 80 158 C78.05365658 156.9486618 78.05365658 156.9486618 76.31761169 155.24206543 C75.63587324 154.58854599 74.95413479 153.93502655 74.25173759 153.26170349 C73.50866419 152.51534134 72.76559078 151.76897919 72 151 C71.1799605 150.20703018 70.359921 149.41406036 69.51503181 148.59706116 C66.62807448 145.79463695 63.77122199 142.96382217 60.91821289 140.12695312 C59.82523424 139.04353364 58.7320899 137.96028129 57.63879395 136.87718201 C54.07957335 133.3490638 50.52565092 129.81563658 46.97265625 126.28125 C46.36637791 125.67826899 45.76009958 125.07528797 45.13544917 124.45403481 C39.41299334 118.76230988 33.6925605 113.06855902 27.97695255 107.36995697 C20.68538606 100.10034986 13.38390515 92.84102309 6.06872946 85.59517145 C0.91247043 80.48612189 -4.23227488 75.36565761 -9.36861616 70.23658514 C-12.43236743 67.17778768 -15.50096469 64.12425124 -18.5820446 61.082901 C-21.47543318 58.2263455 -24.35430554 55.35592671 -27.22267914 52.47426033 C-28.27646436 51.42052908 -29.33539008 50.37190947 -30.39978981 49.32890129 C-31.85356358 47.90279674 -33.28711858 46.45616836 -34.71958923 45.00866699 C-35.52682906 44.2056591 -36.33406889 43.40265121 -37.16577053 42.57530975 C-39.45821825 39.35664869 -39.79794981 36.91115355 -40 33 C-39.0168457 31.02124023 -39.0168457 31.02124023 -37.36328125 29.37109375 C-36.3899585 28.36925049 -36.3899585 28.36925049 -35.39697266 27.34716797 C-34.21047119 26.18531982 -34.21047119 26.18531982 -33 25 C-32.03355487 24.01523003 -31.06934194 23.02826624 -30.10693359 22.03955078 C-27.39257282 19.2616758 -24.65206281 16.51138823 -21.90063477 13.77026367 C-20.17019863 12.04525287 -18.4452551 10.31487572 -16.72070312 8.58398438 C-15.62011271 7.48405367 -14.51921272 6.38443262 -13.41796875 5.28515625 C-12.90340622 4.76856949 -12.38884369 4.25198273 -11.85868835 3.71974182 C-7.63823393 -0.47286773 -5.91064823 -1.8074965 0 0 Z M-7.15478516 15.92773438 C-8.02409668 16.80751953 -8.8934082 17.68730469 -9.7890625 18.59375 C-10.25234955 19.05986694 -10.7156366 19.52598389 -11.19296265 20.00622559 C-12.67505459 21.4995339 -14.15005198 22.99963837 -15.625 24.5 C-16.62714533 25.51217325 -17.62974388 26.52389798 -18.6328125 27.53515625 C-21.09382662 30.01824993 -23.548523 32.50748617 -26 35 C-21.00560623 41.02963396 -15.59211706 46.54300974 -10.04736328 52.06616211 C-9.051202 53.06204081 -8.05526186 54.05814076 -7.05952454 55.05444336 C-4.37418267 57.74007046 -1.68578337 60.42261749 1.00320196 63.1045959 C3.81970152 65.91481614 6.63334253 68.72789552 9.44729614 71.54066467 C14.76811038 76.85837904 20.09146709 82.17354058 25.41575634 87.48777539 C31.4806429 93.54145894 37.54266777 99.59800469 43.60446143 105.65478504 C56.06647358 118.10636326 68.53205058 130.554367 81 143 C84.51568945 141.49665672 86.77701757 139.46992736 89.46722412 136.77328491 C90.35620895 135.88704941 91.24519379 135.0008139 92.16111755 134.08772278 C93.13842926 133.10333337 94.11564467 132.11884835 95.09277344 131.13427734 C96.12740339 130.09908313 97.16247417 129.06432935 98.19795227 128.02998352 C101.00584082 125.22266888 103.80751943 122.40922972 106.60813046 119.59465742 C109.53671011 116.65357681 112.47095302 113.7181575 115.40460205 110.78213501 C120.95816854 105.22235189 126.50661702 99.6574901 132.05324864 94.09078944 C138.36849971 87.75318508 144.68942951 81.42125757 151.01084471 75.0898025 C164.01356242 62.06617865 177.00912512 49.03543639 190 36 C188.02 33.69 186.04 31.38 184 29 C177.92334722 33.96553315 172.47439978 39.47537179 166.99828911 45.07937241 C164.19135886 47.9477471 161.36855642 50.80046567 158.54882812 53.65625 C154.97687046 57.27618973 151.40972145 60.90055849 147.85766602 64.54003906 C144.97076871 67.49716141 142.06945815 70.43943661 139.15797615 73.37234879 C138.05494942 74.48895281 136.95735336 75.61094911 135.86541557 76.73839951 C134.3411259 78.3109411 132.79912842 79.86383513 131.25170898 81.41357422 C130.38013657 82.30148651 129.50856415 83.1893988 128.61058044 84.10421753 C125.45287222 86.39731978 123.82132645 86.56245462 120 86 C119.34 85.34 118.68 84.68 118 84 C118.07196697 78.9762815 119.14828317 76.16680641 122.67825317 72.57522583 C123.4583223 71.82751419 123.4583223 71.82751419 124.25415039 71.06469727 C125.07366936 70.24386406 125.07366936 70.24386406 125.90974426 69.40644836 C127.70852096 67.61183214 129.52756103 65.83937548 131.34765625 64.06640625 C132.60306671 62.82219329 133.85715381 61.57664376 135.10997009 60.32981873 C138.40293538 57.0597075 141.71352004 53.80801866 145.02813721 50.55987549 C148.41047343 47.23903444 151.77578303 43.90103638 155.14257812 40.56445312 C161.7451927 34.02609086 168.36655359 27.50706958 175 21 C173.02 18.69 171.04 16.38 169 14 C165.60185908 15.69907046 164.063551 16.69604808 161.52897644 19.28434753 C160.86046158 19.96167435 160.19194672 20.63900116 159.50317383 21.33685303 C158.78049316 22.0792926 158.0578125 22.82173218 157.31323242 23.58666992 C156.54360672 24.36885391 155.77398102 25.1510379 154.98103333 25.95692444 C153.31045595 27.65519748 151.64198203 29.35554165 149.97536278 31.0576992 C147.33772605 33.74856954 144.69143725 36.43062236 142.04206848 39.10993958 C134.50973963 46.72783133 126.98217435 54.35013137 119.48803711 62.00561523 C114.90436824 66.68777287 110.29986296 71.34878033 105.68294716 75.99819374 C103.92573771 77.77523626 102.17587605 79.55957529 100.43352318 81.35118675 C97.9987346 83.85326971 95.54033509 86.32962534 93.07495117 88.80151367 C92.00003922 89.92428207 92.00003922 89.92428207 90.90341187 91.06973267 C87.71970364 94.21531492 86.03431263 95.87509795 81.50772095 96.42172241 C76.52953334 94.40400179 73.50093297 91.27574328 69.80151367 87.45092773 C68.61974045 86.26564987 68.61974045 86.26564987 67.41409302 85.056427 C64.81784278 82.44582052 62.24327224 79.8148517 59.66796875 77.18359375 C57.86818315 75.36753636 56.06691784 73.55294432 54.26423645 71.73976135 C50.00962455 67.45441865 45.76793963 63.15670538 41.53296024 58.85199076 C33.48991129 50.67751866 25.41798767 42.53163136 17.34392738 34.38780403 C14.68939345 31.70524464 12.04256848 29.01525801 9.39677429 26.32408142 C7.78184906 24.68912051 6.16677066 23.05431088 4.55151367 21.41967773 C3.81229172 20.66383896 3.07306976 19.90800018 2.31144714 19.1292572 C1.63726746 18.44915588 0.96308777 17.76905457 0.26847839 17.06834412 C-0.31790814 16.47232108 -0.90429468 15.87629805 -1.50845051 15.26221371 C-4.03342404 13.12547187 -4.75252596 13.77860242 -7.15478516 15.92773438 Z " fill="#FFFFFF" transform="translate(46,41)"/>
<path d="M0 0 C2 1.6875 2 1.6875 3 4 C2.58468886 10.5741392 -2.70106529 14.44508896 -7.09033203 18.83154297 C-8.6209252 20.37090186 -10.11668201 21.93937969 -11.61328125 23.51171875 C-12.58657072 24.49674304 -13.56177128 25.47988342 -14.5390625 26.4609375 C-15.41771973 27.35603027 -16.29637695 28.25112305 -17.20166016 29.17333984 C-20 31 -20 31 -23.71630859 30.97119141 C-27 30 -27 30 -29 27 C-28.75724129 19.84532738 -24.16915028 16.34243845 -19.33691406 11.57519531 C-17.87849976 10.12847171 -16.45498847 8.65264167 -15.03125 7.171875 C-13.65066406 5.79128906 -13.65066406 5.79128906 -12.2421875 4.3828125 C-11.4054248 3.54121582 -10.56866211 2.69961914 -9.70654297 1.83251953 C-6.24401745 -0.51185324 -4.10098461 -0.47185918 0 0 Z " fill="#FFFFFF" transform="translate(154,135)"/>
</svg>
