<?xml version="1.0" encoding="UTF-8"?>
<svg version="1.1" xmlns="http://www.w3.org/2000/svg" width="256" height="256">
<path d="M0 0 C3.08954459 1.77484476 4.53214578 3.23442037 6.375 6.25 C8.23523542 14.43503583 4.33357323 23.49410335 2.09448242 31.30712891 C1.68656104 32.74669643 1.27912893 34.18640267 0.87214661 35.62623596 C-0.22974359 39.51817987 -1.3392165 43.40792203 -2.45068955 47.29713869 C-3.37960179 50.54964069 -4.30513337 53.80310097 -5.23079127 57.05653036 C-7.41490904 64.73233549 -9.60556733 72.40625359 -11.80004883 80.07910156 C-14.06121944 87.98564987 -16.31013561 95.89561242 -18.5532673 103.80729544 C-20.48290576 110.61136412 -22.42071286 117.41307074 -24.36493224 124.2129873 C-25.5246106 128.2694144 -26.68106371 132.3266917 -27.82941628 136.38634109 C-28.90923027 140.20251829 -29.99921734 144.01564369 -31.09700203 147.82668877 C-31.49731759 149.22282136 -31.89405296 150.61998643 -32.28686905 152.0182476 C-32.82516623 153.9321608 -33.37788336 155.84200057 -33.93122864 157.75161743 C-34.23596509 158.81972467 -34.54070154 159.88783192 -34.85467243 160.98830605 C-36.46464122 165.22179646 -38.37307948 168.96057855 -42.25 171.4375 C-46.03735547 172.21218635 -49.34717074 172.22988404 -53 171 C-56.12747054 168.45893019 -57.6832268 166.95142396 -58.32862473 162.97556686 C-58.4435545 155.09025966 -56.39489238 147.98228166 -54.20800781 140.46582031 C-53.79961019 139.0261345 -53.3923437 137.58612742 -52.9861145 136.14582825 C-51.886503 132.26035398 -50.77046588 128.3797817 -49.65070438 124.50007343 C-48.47785068 120.42800471 -47.31839558 116.35212028 -46.15692139 112.27679443 C-44.20570485 105.43851373 -42.2437771 98.60337621 -40.27539062 91.77001953 C-38.00259713 83.87940467 -35.74682402 75.98407593 -33.5000813 68.08600736 C-31.33355471 60.47140197 -29.15508231 52.86026412 -26.97115326 45.25063324 C-26.04392001 42.01903066 -25.1208517 38.78628191 -24.20114899 35.55252838 C-23.11751149 31.74443777 -22.02341688 27.93950399 -20.92129135 24.13672447 C-20.51939346 22.74381353 -20.12104708 21.34987202 -19.7265892 19.95483589 C-19.18602833 18.04539654 -18.63107763 16.14004865 -18.07550049 14.23492432 C-17.76946522 13.16941471 -17.46342995 12.10390511 -17.14812088 11.00610733 C-13.77454667 2.17312961 -9.28397861 -1.32162086 0 0 Z " fill="#FFFFFF" transform="translate(154,42)"/>
<path d="M0 0 C4.03938069 2.91608881 7.42475805 6.44255049 10.87109375 10.01953125 C11.88315478 11.04145374 12.89686124 12.06174905 13.91212463 13.08049011 C16.02794957 15.21153924 18.13023135 17.35476975 20.22241211 19.5090332 C22.90079176 22.26676168 25.600451 25.00232953 28.30908108 27.73032093 C30.89936297 30.34056509 33.47965984 32.96058168 36.05859375 35.58203125 C36.54898069 36.07920969 37.03936764 36.57638813 37.54461479 37.08863258 C38.93288974 38.50012744 40.31318477 39.91945751 41.69311523 41.33911133 C42.47871323 42.14439774 43.26431122 42.94968414 44.07371521 43.77937317 C46.67447243 46.77753382 47.86206222 48.942477 48.375 52.875 C47.41658945 60.86175455 39.64806817 66.74202006 34.30078125 72.17578125 C33.83025015 72.65446341 33.35971905 73.13314556 32.87492943 73.62633324 C30.38713035 76.15563513 27.89298559 78.67848524 25.39379883 81.1965332 C22.82571077 83.78680118 20.28184697 86.39958011 17.74259663 89.0180788 C15.77327951 91.03983085 13.78625531 93.04346823 11.7941494 95.04274559 C10.39155506 96.45971761 9.00831478 97.8957641 7.62556458 99.33210754 C2.95131014 103.9748285 -0.352175 107.03343418 -7.11482239 107.23161316 C-10.95674255 106.75959436 -13.03387238 104.86618339 -15.8125 102.375 C-17.74892195 98.50215611 -17.84239175 95.21870461 -17 91 C-11.56106266 82.40421434 -2.26041056 75.15178685 4.9375 68 C6.30296745 66.63955682 7.66820386 65.27888169 9.03320312 63.91796875 C12.35280886 60.6092969 15.67553273 57.30378678 19 54 C17.64245411 50.96260698 16.12227009 48.88064527 13.75952148 46.54833984 C13.10221542 45.89441254 12.44490936 45.24048523 11.76768494 44.56674194 C11.05930984 43.87182648 10.35093475 43.17691101 9.62109375 42.4609375 C8.89382584 41.73887115 8.16655792 41.01680481 7.41725159 40.27285767 C5.09536418 37.96877306 2.76689861 35.67148868 0.4375 33.375 C-1.89458572 31.07050867 -4.22520945 28.76458608 -6.55296326 26.45571899 C-8.00145538 25.01950844 -9.45261176 23.58597914 -10.90663147 22.15536499 C-11.56078537 21.507742 -12.21493927 20.86011902 -12.88891602 20.19287109 C-13.46690445 19.62313568 -14.04489288 19.05340027 -14.64039612 18.46640015 C-17.50223146 15.37976895 -17.3880287 12.36555909 -17.35546875 8.328125 C-16.75147582 4.37230319 -14.89542195 2.69341577 -12 0 C-7.64050399 -1.45316534 -4.38156848 -1.48798076 0 0 Z " fill="#FFFFFF" transform="translate(198,75)"/>
<path d="M0 0 C3.24227766 2.64675727 4.52193628 4.13589544 5.54296875 8.1171875 C5.8356498 11.30906764 5.68783529 13.93300737 3.9206543 16.67431641 C-2.79250192 24.0146607 -9.88267499 30.99038182 -16.9375 38 C-18.30296745 39.36044318 -19.66820386 40.72111831 -21.03320312 42.08203125 C-24.35280886 45.3907031 -27.67553273 48.69621322 -31 52 C-29.64245411 55.03739302 -28.12227009 57.11935473 -25.75952148 59.45166016 C-25.10221542 60.10558746 -24.44490936 60.75951477 -23.76768494 61.43325806 C-23.05930984 62.12817352 -22.35093475 62.82308899 -21.62109375 63.5390625 C-20.89382584 64.26112885 -20.16655792 64.98319519 -19.41725159 65.72714233 C-17.09536418 68.03122694 -14.76689861 70.32851132 -12.4375 72.625 C-10.10541428 74.92949133 -7.77479055 77.23541392 -5.44703674 79.54428101 C-3.99854462 80.98049156 -2.54738824 82.41402086 -1.09336853 83.84463501 C-0.11213768 84.81606949 -0.11213768 84.81606949 0.88891602 85.80712891 C1.46690445 86.37686432 2.04489288 86.94659973 2.64039612 87.53359985 C5.50063999 90.61851458 5.40367193 93.6339457 5.33203125 97.671875 C4.73100547 101.88612634 3.31752752 103.29181427 0 106 C-3.05231886 106.97696282 -5.81434908 107.39820637 -9 107 C-12.74999981 105.01402613 -15.57996031 102.67259531 -18.57495117 99.68383789 C-19.44903122 98.81606216 -20.32311127 97.94828644 -21.22367859 97.05421448 C-22.15404434 96.11980026 -23.0844101 95.18538605 -24.04296875 94.22265625 C-25.01723034 93.24974328 -25.99178854 92.27712724 -26.96662903 91.30479431 C-29.00307361 89.27129033 -31.03587703 87.23423329 -33.06616211 85.19458008 C-35.66529334 82.58403977 -38.27332122 79.98260189 -40.88413525 77.38375187 C-42.89606776 75.37905375 -44.90320339 73.36960738 -46.90892982 71.35870171 C-47.86870969 70.39759051 -48.82996966 69.43795497 -49.79274559 68.47984505 C-51.13775401 67.13992927 -52.47565318 65.79288871 -53.81323242 64.44555664 C-54.57536545 63.68183243 -55.33749847 62.91810822 -56.12272644 62.13124084 C-58.71792811 59.18494685 -59.86760865 57.01500039 -60.375 53.125 C-59.40546398 45.04553314 -51.5418828 39.2525849 -46.08984375 33.82421875 C-45.11596459 32.84899057 -44.14238234 31.87346581 -43.16908264 30.8976593 C-41.13735646 28.86299721 -39.10208873 26.83196501 -37.06420898 24.8034668 C-34.45246287 22.20316003 -31.84986004 19.59391497 -29.24980831 16.9819212 C-27.24514618 14.97003783 -25.23575233 12.96293497 -23.22488594 10.95725441 C-22.26294719 9.99664907 -21.30248983 9.0345579 -20.34354973 8.07095909 C-19.00592502 6.7282601 -17.66120326 5.39264258 -16.31616211 4.05737305 C-15.55323349 3.29603561 -14.79030487 2.53469818 -14.0042572 1.75028992 C-9.81776378 -1.90571652 -5.08522047 -1.41602461 0 0 Z " fill="#FFFFFF" transform="translate(70,75)"/>
</svg>
