<?xml version="1.0" encoding="UTF-8"?>
<svg version="1.1" xmlns="http://www.w3.org/2000/svg" width="512" height="512">
<path d="M0 0 C108.9 0 217.8 0 330 0 C323.32403251 74.04254855 316.63524178 148.08159365 309.76383591 222.10592651 C308.92938186 231.09676439 308.09753017 240.08784212 307.26603878 249.0789544 C306.43140779 258.10322253 305.59543596 267.12736573 304.75834095 276.15140563 C304.26756707 281.44209821 303.77725348 286.73283225 303.28823471 292.02368736 C302.83822008 296.89185162 302.38652627 301.75985714 301.93350792 306.62774277 C301.76883095 308.40027522 301.60474393 310.17286261 301.44129753 311.94550896 C301.21832676 314.36268532 300.9932058 316.77965224 300.76754761 319.19657898 C300.70403575 319.89061488 300.64052389 320.58465079 300.57508743 321.29971808 C300.17460586 325.5581452 299.63449511 329.77176705 299 334 C287.86230871 337.5668208 276.59590681 340.59306281 265.30078125 343.61328125 C263.29650826 344.15109064 261.29229291 344.68911485 259.28813171 345.2273407 C254.02984547 346.63888025 248.77080918 348.04760455 243.51159668 349.45568848 C237.20775457 351.1440415 230.90475522 352.83553887 224.60185051 354.52738762 C219.54242414 355.88519667 214.48240846 357.2407136 209.42092896 358.59085083 C201.10973546 360.8096302 192.8035526 363.03667244 184.52880859 365.38818359 C183.31976364 365.72786667 182.11071869 366.06754974 180.86503601 366.41752625 C178.75235944 367.01401301 176.64286229 367.62196908 174.53791809 368.24519348 C173.6361937 368.49838852 172.7344693 368.75158356 171.80541992 369.01245117 C171.05918869 369.23019699 170.31295746 369.44794281 169.54411316 369.67228699 C162.95430747 370.52113487 156.38606908 368.46144162 150.07836914 366.734375 C148.79550522 366.39008202 148.79550522 366.39008202 147.48672485 366.03883362 C144.66812888 365.28100335 141.85166198 364.51555874 139.03515625 363.75 C137.04068587 363.2120278 135.04609006 362.67452043 133.05137634 362.13745117 C127.78726315 360.71871018 122.52493463 359.29345569 117.26293945 357.86688232 C112.03251167 356.4501502 106.80034904 355.03985709 101.56835938 353.62890625 C91.55920595 350.92844019 81.55257742 348.21874128 71.54718018 345.50439453 C67.08979562 344.29518623 62.63175659 343.08841384 58.17348194 341.88249207 C55.04332366 341.03535116 51.91366413 340.1863809 48.78417778 339.33676147 C47.35663013 338.94952272 45.9288955 338.56297254 44.50096321 338.17715454 C42.57489055 337.6565551 40.64960272 337.13305456 38.72436523 336.609375 C37.65822495 336.32030273 36.59208466 336.03123047 35.49363708 335.73339844 C33 335 33 335 31 334 C30.50568771 331.38283253 30.50568771 331.38283253 30.15106201 327.7558136 C30.08248127 327.07895315 30.01390054 326.4020927 29.9432416 325.70472133 C29.70886907 323.36298288 29.48873894 321.02011461 29.26855469 318.67700195 C29.09943167 316.94849251 28.92968327 315.22004417 28.75938034 313.49165058 C28.15704658 307.32924943 27.57841397 301.16468458 27 295 C26.77385627 292.6015771 26.54766348 290.20315882 26.32142639 287.80474472 C24.64292531 269.97788778 22.99821873 252.14796148 21.3601767 234.3173493 C20.61909392 226.25097691 19.87579028 218.18480955 19.13244554 210.11864535 C17.80751355 195.74078818 16.4844895 181.36275611 15.16259766 166.98461914 C13.88180158 153.05349759 12.59961136 139.12250526 11.31591797 125.19165039 C11.23631998 124.32783771 11.156722 123.46402503 11.07471195 122.5740362 C10.99524518 121.71164949 10.91577841 120.84926277 10.83390355 119.96074313 C9.36512765 104.02125434 7.89754833 88.08165558 6.43058123 72.14200022 C5.91332581 66.5219161 5.39572789 60.90186357 4.87802887 55.2818203 C4.24971699 48.46069608 3.62210099 41.63950823 2.99536285 34.81823923 C2.67579725 31.34029575 2.35594168 27.86237958 2.03530312 24.38453484 C1.68872561 20.62359579 1.34326456 16.86255588 0.99810791 13.10148621 C0.89578079 11.99386671 0.79345366 10.88624721 0.68802571 9.74506348 C0.59644083 8.74449774 0.50485594 7.74393199 0.41049576 6.71304607 C0.33064446 5.84488189 0.25079316 4.97671771 0.16852212 4.08224553 C0 2 0 2 0 0 Z " fill="#1758A7" transform="translate(91,117)"/>
<path d="M0 0 C67.32 0 134.64 0 204 0 C204 14.625 204 14.625 203.34375 20.17578125 C203.14072266 21.94018555 203.14072266 21.94018555 202.93359375 23.74023438 C202.79050781 24.91908203 202.64742187 26.09792969 202.5 27.3125 C202.35691406 28.54162109 202.21382812 29.77074219 202.06640625 31.03710938 C201.71755683 34.02558604 201.3620103 37.01309413 201 40 C194.22169566 42.94749967 187.44260809 45.89319314 180.66308594 48.83789062 C178.3793958 49.83003202 176.09585612 50.82251982 173.8125 51.81542969 C151.24418515 61.62861659 128.6203211 71.30557667 106 81 C136.36 81.33 166.72 81.66 198 82 C195.70740002 114.09639978 195.70740002 114.09639978 194.52273369 126.91667938 C194.29703841 129.35944159 194.0749582 131.80251388 193.85353088 134.2456665 C193.38450413 139.4140521 192.91121531 144.58204237 192.4375 149.75 C191.88334062 155.80046403 191.33108175 161.85109427 190.78227425 167.9020462 C190.56649408 170.27258291 190.34798501 172.64285631 190.1292572 175.01312256 C189.34415416 183.61327949 188.71019396 192.20245903 188.26161194 200.82720947 C188 204 188 204 187 207 C181.60859453 209.77804159 175.90935988 211.22596436 170.0625 212.75 C153.67352493 217.12519314 137.37329362 221.80933099 121.23754883 227.046875 C110.0083409 230.66845761 101.51528031 232.26148026 90.125 228.3125 C88.43967972 227.75385577 86.75345739 227.19792649 85.06640625 226.64453125 C84.21965332 226.36561035 83.37290039 226.08668945 82.50048828 225.79931641 C78.7169839 224.58986578 74.89604512 223.53769293 71.0625 222.5 C57.2401998 218.72945679 43.56048644 214.47732373 29.85546875 210.3046875 C28.27977112 209.8250354 28.27977112 209.8250354 26.67224121 209.33569336 C24.11480992 208.55718654 21.55739648 207.77862117 19 207 C18.34558698 199.39392162 17.69346454 191.78764979 17.04424286 184.18112659 C16.74269242 180.64889278 16.4403618 177.1167294 16.13623047 173.5847168 C15.78639518 169.52151966 15.43998536 165.45803674 15.09375 161.39453125 C14.9843811 160.1297847 14.87501221 158.86503815 14.7623291 157.56196594 C14.61217346 155.79069588 14.61217346 155.79069588 14.45898438 153.98364258 C14.37015991 152.94661697 14.28133545 151.90959137 14.18981934 150.84114075 C14.01445311 148.2163285 13.96451942 145.62954531 14 143 C19.82071622 142.97535362 25.64140234 142.9571657 31.4621582 142.94506836 C33.44393441 142.94002733 35.42570689 142.93319462 37.4074707 142.92456055 C40.24952109 142.91248485 43.09152247 142.90676955 45.93359375 142.90234375 C46.82525742 142.89718246 47.71692108 142.89202118 48.63560486 142.88670349 C50.75740601 142.88650823 52.8791078 142.9378997 55 143 C56.6285188 144.6285188 56.33913399 146.56397392 56.53515625 148.8125 C56.66567383 150.30330078 56.66567383 150.30330078 56.79882812 151.82421875 C56.9293457 153.39623047 56.9293457 153.39623047 57.0625 155 C57.15337891 156.01707031 57.24425781 157.03414062 57.33789062 158.08203125 C57.84988781 164.07971251 58.09404552 169.98108676 58 176 C58.8765625 176.21914063 59.753125 176.43828125 60.65625 176.6640625 C61.9246875 176.98117187 63.193125 177.29828125 64.5 177.625 C65.19544922 177.79741211 65.89089844 177.96982422 66.60742188 178.14746094 C71.12140028 179.26915152 75.62572554 180.42218179 80.125 181.6015625 C81.17880859 181.87403809 82.23261719 182.14651367 83.31835938 182.42724609 C85.40497828 182.9668337 87.4897095 183.51378621 89.57226562 184.06884766 C100.2192112 186.80086092 107.45337328 185.91968871 117.875 182.8125 C119.93476043 182.21437726 121.99466006 181.61673372 124.0546875 181.01953125 C127.49261719 180.01986328 127.49261719 180.01986328 131 179 C136.94 177.35 142.88 175.7 149 174 C149.99 156.84 150.98 139.68 152 122 C105.47 122 58.94 122 11 122 C8 87 8 87 8 81 C8.85489014 80.64510498 9.70978027 80.29020996 10.59057617 79.92456055 C14.79023198 78.18051086 18.98901642 76.43436954 23.1875 74.6875 C23.97232758 74.36097443 24.75715515 74.03444885 25.56576538 73.69802856 C35.68279451 69.48689295 45.78944368 65.25192836 55.8828125 60.984375 C56.87636246 60.56432693 57.86991241 60.14427887 58.89356995 59.71150208 C63.76432703 57.65153174 68.63406341 55.58918072 73.50268555 53.52416992 C75.32079205 52.7543739 77.13890691 51.98459763 78.95703125 51.21484375 C79.74977448 50.87777405 80.5425177 50.54070435 81.35928345 50.19342041 C88.86631903 47.0174447 96.42602838 44.02958865 104 41 C71 40.67 38 40.34 4 40 C0 9 0 9 0 0 Z " fill="#E4E4E3" transform="translate(153,185)"/>
<path d="M0 0 C43.89 0 87.78 0 133 0 C133 5.94788432 132.87388873 11.61852527 132.30078125 17.5 C132.22566818 18.30795013 132.15055511 19.11590027 132.07316589 19.94833374 C131.90941365 21.70601512 131.74384871 23.46352838 131.57666016 25.22088623 C131.11120085 30.1177805 130.66032496 35.01602981 130.20703125 39.9140625 C130.10975739 40.96115387 130.01248352 42.00824524 129.91226196 43.08706665 C128.72989113 55.84574268 127.61537968 68.61032514 126.5 81.375 C126.28485557 83.83211481 126.06968624 86.28922743 125.85449219 88.74633789 C124.89805148 99.67540705 123.94617146 110.60485564 123.00390625 121.53515625 C122.69033556 125.16929085 122.3765173 128.80340397 122.0625 132.4375 C121.98499512 133.33500977 121.90749023 134.23251953 121.82763672 135.15722656 C120.76969121 147.38768487 119.67639993 159.61471931 118.55859375 171.83984375 C118.49540262 172.53115765 118.43221149 173.22247154 118.36710548 173.93473434 C117.78179379 180.33705525 117.19586203 186.73931928 116.60879517 193.14147949 C114.72069172 213.74178032 112.92063067 234.3474015 111.29296875 254.97021484 C110.48831309 265.03356 109.47314172 275.01037727 108 285 C104.23828909 286.28089771 100.47972665 287.45552982 96.640625 288.48046875 C95.62097656 288.75375 94.60132813 289.02703125 93.55078125 289.30859375 C92.46152344 289.59863281 91.37226563 289.88867188 90.25 290.1875 C87.90102886 290.81635842 85.55207089 291.44526603 83.203125 292.07421875 C82.00494141 292.39438965 80.80675781 292.71456055 79.57226562 293.04443359 C74.04628681 294.52261027 68.52323223 296.01160061 63 297.5 C60.83724734 298.08206008 58.6744869 298.66409123 56.51171875 299.24609375 C52.13865759 300.42332996 47.76634298 301.60328894 43.39453125 302.78515625 C32.58493508 305.70548103 21.77007751 308.60344973 10.9375 311.4375 C9.94919189 311.69668213 8.96088379 311.95586426 7.94262695 312.22290039 C7.0424585 312.4574292 6.14229004 312.69195801 5.21484375 312.93359375 C4.42198975 313.14040771 3.62913574 313.34722168 2.81225586 313.56030273 C1 314 1 314 0 314 C-0.495 293.21 -0.495 293.21 -1 272 C6.425 270.02 6.425 270.02 14 268 C16.65006973 267.24385949 19.29686663 266.47596273 21.9375 265.6875 C23.37229797 265.26138909 24.80720024 264.83562926 26.2421875 264.41015625 C27.00112305 264.18473145 27.76005859 263.95930664 28.54199219 263.72705078 C34.22285992 262.04671466 39.91259521 260.39650475 45.60058594 258.74047852 C50.96749767 257.17746973 56.33279772 255.60928575 61.6953125 254.03125 C62.78255615 253.7120459 63.8697998 253.3928418 64.98999023 253.06396484 C67.07594168 252.4514147 69.1614149 251.83723298 71.24633789 251.22119141 C72.66160767 250.80619385 72.66160767 250.80619385 74.10546875 250.3828125 C74.93199951 250.13934082 75.75853027 249.89586914 76.61010742 249.64501953 C79.05883542 248.98412063 81.51154416 248.48663897 84 248 C84.03931137 247.3350502 84.07862274 246.6701004 84.11912537 245.98500061 C85.49710597 223.1390284 87.46785034 200.35383144 89.51391602 177.55932617 C89.97761834 172.39322927 90.43572779 167.22665331 90.89228153 162.05992031 C91.24797894 158.04063293 91.60634113 154.02158667 91.96554375 150.00261116 C92.13576356 148.0949196 92.30520448 146.18715836 92.47383308 144.27932549 C92.70781416 141.63705861 92.94534053 138.99513402 93.18383789 136.35327148 C93.25190643 135.57681274 93.31997498 134.800354 93.3901062 134.00036621 C93.73268949 130.24747079 94.25836892 126.70815542 95 123 C63.98 123 32.96 123 1 123 C4.32133234 120.50900074 6.74902297 119.09936185 10.48950195 117.52368164 C11.5894902 117.05667343 12.68947845 116.58966522 13.82279968 116.10850525 C15.0117836 115.60992508 16.20076752 115.11134491 17.42578125 114.59765625 C18.67989114 114.06694296 19.9337368 113.53560489 21.18733215 113.00367737 C23.80802718 111.89192589 26.42965981 110.78242689 29.05181885 109.6741333 C35.27055921 107.04169375 41.46778341 104.3593819 47.66796875 101.68359375 C51.29292221 100.12359096 54.91830966 98.56459968 58.54370117 97.00561523 C61.00746233 95.94533129 63.47076437 94.88405035 65.93334961 93.82104492 C69.57231909 92.2503468 73.21382898 90.68559139 76.85546875 89.12109375 C77.9461113 88.64925156 79.03675385 88.17740936 80.16044617 87.69126892 C86.03958858 85.17126696 91.89899028 82.92430855 98 81 C98.07347656 79.55947266 98.07347656 79.55947266 98.1484375 78.08984375 C98.82551707 65.68060961 99.92150019 53.40274785 101 41 C33.68 41 -33.64 41 -103 41 C-103.33 42.32 -103.66 43.64 -104 45 C-104 43.35 -104 41.7 -104 40 C-69.68 40 -35.36 40 0 40 C0 26.8 0 13.6 0 0 Z " fill="#389AD6" transform="translate(256,144)"/>
<path d="M0 0 C31.35 0 62.7 0 95 0 C92.70740002 32.09639978 92.70740002 32.09639978 91.52273369 44.91667938 C91.29703841 47.35944159 91.0749582 49.80251388 90.85353088 52.2456665 C90.38450413 57.4140521 89.91121531 62.58204237 89.4375 67.75 C88.88334062 73.80046403 88.33108175 79.85109427 87.78227425 85.9020462 C87.56649408 88.27258291 87.34798501 90.64285631 87.1292572 93.01312256 C86.34415416 101.61327949 85.71019396 110.20245903 85.26161194 118.82720947 C85 122 85 122 84 125 C78.60859453 127.77804159 72.90935988 129.22596436 67.0625 130.75 C50.67352493 135.12519314 34.37329362 139.80933099 18.23754883 145.046875 C7.0083409 148.66845761 -1.48471969 150.26148026 -12.875 146.3125 C-14.56032028 145.75385577 -16.24654261 145.19792649 -17.93359375 144.64453125 C-18.78034668 144.36561035 -19.62709961 144.08668945 -20.49951172 143.79931641 C-24.2830161 142.58986578 -28.10395488 141.53769293 -31.9375 140.5 C-45.7598002 136.72945679 -59.43951356 132.47732373 -73.14453125 128.3046875 C-74.19499634 127.98491943 -75.24546143 127.66515137 -76.32775879 127.33569336 C-78.88519008 126.55718654 -81.44260352 125.77862117 -84 125 C-84.65441302 117.39392162 -85.30653546 109.78764979 -85.95575714 102.18112659 C-86.25730758 98.64889278 -86.5596382 95.1167294 -86.86376953 91.5847168 C-87.21360482 87.52151966 -87.56001464 83.45803674 -87.90625 79.39453125 C-88.0156189 78.1297847 -88.12498779 76.86503815 -88.2376709 75.56196594 C-88.33777466 74.38111923 -88.43787842 73.20027252 -88.54101562 71.98364258 C-88.62984009 70.94661697 -88.71866455 69.90959137 -88.81018066 68.84114075 C-88.98554689 66.2163285 -89.03548058 63.62954531 -89 61 C-83.17928378 60.97535362 -77.35859766 60.9571657 -71.5378418 60.94506836 C-69.55606559 60.94002733 -67.57429311 60.93319462 -65.5925293 60.92456055 C-62.75047891 60.91248485 -59.90847753 60.90676955 -57.06640625 60.90234375 C-56.17474258 60.89718246 -55.28307892 60.89202118 -54.36439514 60.88670349 C-52.24259399 60.88650823 -50.1208922 60.9378997 -48 61 C-46.3714812 62.6285188 -46.66086601 64.56397392 -46.46484375 66.8125 C-46.33432617 68.30330078 -46.33432617 68.30330078 -46.20117188 69.82421875 C-46.0706543 71.39623047 -46.0706543 71.39623047 -45.9375 73 C-45.84662109 74.01707031 -45.75574219 75.03414063 -45.66210938 76.08203125 C-45.15011219 82.07971251 -44.90595448 87.98108676 -45 94 C-44.1234375 94.21914063 -43.246875 94.43828125 -42.34375 94.6640625 C-41.0753125 94.98117187 -39.806875 95.29828125 -38.5 95.625 C-37.45682617 95.88361816 -37.45682617 95.88361816 -36.39257812 96.14746094 C-31.87859972 97.26915152 -27.37427446 98.42218179 -22.875 99.6015625 C-21.82119141 99.87403809 -20.76738281 100.14651367 -19.68164062 100.42724609 C-17.59502172 100.9668337 -15.5102905 101.51378621 -13.42773438 102.06884766 C-2.7807888 104.80086092 4.45337328 103.91968871 14.875 100.8125 C16.93476043 100.21437726 18.99466006 99.61673372 21.0546875 99.01953125 C23.34664063 98.35308594 25.63859375 97.68664062 28 97 C33.94 95.35 39.88 93.7 46 92 C46.99 74.84 47.98 57.68 49 40 C32.83 40 16.66 40 0 40 C0 26.8 0 13.6 0 0 Z " fill="#FAFAF9" transform="translate(256,267)"/>
<path d="M0 0 C5.82071622 -0.02464638 11.64140234 -0.0428343 17.4621582 -0.05493164 C19.44393441 -0.05997267 21.42570689 -0.06680538 23.4074707 -0.07543945 C26.24952109 -0.08751515 29.09152247 -0.09323045 31.93359375 -0.09765625 C32.82525742 -0.10281754 33.71692108 -0.10797882 34.63560486 -0.11329651 C36.75740601 -0.11349177 38.8791078 -0.0621003 41 0 C42.6285188 1.6285188 42.33913399 3.56397392 42.53515625 5.8125 C42.66567383 7.30330078 42.66567383 7.30330078 42.79882812 8.82421875 C42.9293457 10.39623047 42.9293457 10.39623047 43.0625 12 C43.15337891 13.01707031 43.24425781 14.03414063 43.33789062 15.08203125 C43.84988781 21.07971251 44.09404552 26.98108676 44 33 C45.31484375 33.32871094 45.31484375 33.32871094 46.65625 33.6640625 C47.9246875 33.98117187 49.193125 34.29828125 50.5 34.625 C51.19472412 34.79813721 51.88944824 34.97127441 52.60522461 35.1496582 C57.12642633 36.27740112 61.6443961 37.41705422 66.16015625 38.56640625 C67.21847656 38.83437012 68.27679688 39.10233398 69.3671875 39.37841797 C71.46556767 39.90974681 73.56325027 40.44383972 75.66015625 40.98095703 C80.76684969 42.27022914 85.76660781 43.39078324 91 44 C90.01 44.495 90.01 44.495 89 45 C89 59.19 89 73.38 89 88 C83.22660015 87.27832502 79.37934788 86.63251012 74.125 84.75 C68.56848875 82.81390641 62.99111055 81.1035795 57.3125 79.5625 C43.40558126 75.7739042 29.64316573 71.50249631 15.85546875 67.3046875 C14.80500366 66.98491943 13.75453857 66.66515137 12.67224121 66.33569336 C10.11480992 65.55718654 7.55739648 64.77862117 5 64 C4.34558698 56.39392162 3.69346454 48.78764979 3.04424286 41.18112659 C2.74269242 37.64889278 2.4403618 34.1167294 2.13623047 30.5847168 C1.78639518 26.52151966 1.43998536 22.45803674 1.09375 18.39453125 C0.9843811 17.1297847 0.87501221 15.86503815 0.7623291 14.56196594 C0.66222534 13.38111923 0.56212158 12.20027252 0.45898438 10.98364258 C0.37015991 9.94661697 0.28133545 8.90959137 0.18981934 7.84114075 C0.01445311 5.2163285 -0.03548058 2.62954531 0 0 Z " fill="#E5E6E6" transform="translate(167,328)"/>
<path d="M0 0 C33.33 0 66.66 0 101 0 C101 13 101 13 98 39 C65.66 39 33.32 39 0 39 C0 26.13 0 13.26 0 0 Z " fill="#F7F7F6" transform="translate(256,185)"/>
<path d="M0 0 C17.16 0 34.32 0 52 0 C52 7.59 52 15.18 52 23 C46.06 23.33 40.12 23.66 34 24 C36.2275 25.98 36.2275 25.98 38.5 28 C39.85738281 29.26070312 39.85738281 29.26070312 41.2421875 30.546875 C43.85585962 32.9834501 43.85585962 32.9834501 46.4453125 34.640625 C48.625 36.25 48.625 36.25 52 41 C52 47.93 52 54.86 52 62 C34.84 62 17.68 62 0 62 C0 55.4 0 48.8 0 42 C5.94 41.67 11.88 41.34 18 41 C16.700625 39.96746094 15.40125 38.93492188 14.0625 37.87109375 C12.37202956 36.39662786 10.68469347 34.9185631 9 33.4375 C8.14148438 32.77169922 7.28296875 32.10589844 6.3984375 31.41992188 C3.9375 29.18359375 3.9375 29.18359375 0 23 C0 15.41 0 7.82 0 0 Z " fill="#1A1A1A" transform="translate(302,26)"/>
<path d="M0 0 C17.16 0 34.32 0 52 0 C52 7.59 52 15.18 52 23 C43.585 23.495 43.585 23.495 35 24 C36.84078125 25.47533203 36.84078125 25.47533203 38.71875 26.98046875 C40.31521377 28.37972229 41.90881407 29.78224756 43.5 31.1875 C44.31082031 31.82236328 45.12164062 32.45722656 45.95703125 33.11132812 C48.28125 35.23046875 48.28125 35.23046875 52 41 C52 47.93 52 54.86 52 62 C34.84 62 17.68 62 0 62 C0 55.4 0 48.8 0 42 C6.27 41.67 12.54 41.34 19 41 C17.535625 39.700625 16.07125 38.40125 14.5625 37.0625 C13.65886719 36.22074219 12.75523437 35.37898438 11.82421875 34.51171875 C9.12250052 31.99532731 9.12250052 31.99532731 6.33203125 30.20703125 C3.875 28.375 3.875 28.375 0 23 C0 15.41 0 7.82 0 0 Z " fill="#1A1A1A" transform="translate(230,26)"/>
<path d="M0 0 C16.17 0 32.34 0 49 0 C49 12.74853056 48.92706139 25.15310086 48 37.8125 C47.90298666 39.21024086 47.80663258 40.60802764 47.7109375 42.00585938 C47.48035716 45.33774527 47.24340576 48.66903099 47 52 C42.4133948 54.05742317 37.97870188 55.68025649 33.10546875 56.97265625 C32.47320877 57.14123642 31.84094879 57.30981659 31.18952942 57.48350525 C29.8616426 57.83634459 28.53307296 58.18662349 27.20385742 58.53442383 C25.20121883 59.05890709 23.20110185 59.59224536 21.20117188 60.12695312 C14.15352884 61.99318657 7.16724477 63.56655105 0 65 C0 43.55 0 22.1 0 0 Z " fill="#379AD6" transform="translate(256,307)"/>
<path d="M0 0 C17.16 0 34.32 0 52 0 C52 7.59 52 15.18 52 23 C42.43 23 32.86 23 23 23 C23 29.27 23 35.54 23 42 C32.57 42 42.14 42 52 42 C52 48.6 52 55.2 52 62 C34.84 62 17.68 62 0 62 C0 41.54 0 21.08 0 0 Z " fill="#1B1B1B" transform="translate(158,26)"/>
<path d="M0 0 C0.88815903 -0.00029205 1.77631805 -0.00058411 2.69139099 -0.00088501 C5.62411299 0.00050721 8.55658025 0.01606341 11.48925781 0.03173828 C13.52378195 0.03546879 15.55830789 0.03831558 17.59283447 0.04031372 C22.9456682 0.04794716 28.29839326 0.06759324 33.65118408 0.08972168 C39.11412079 0.11018629 44.57707507 0.11931676 50.04003906 0.12939453 C60.7575347 0.15083934 71.47494972 0.18497187 82.19238281 0.22705078 C80.83711991 2.93757659 79.48565925 3.14272965 76.70898438 4.31152344 C75.74613022 4.72073532 74.78327606 5.1299472 73.79124451 5.55155945 C72.7325264 5.99361221 71.67380829 6.43566498 70.58300781 6.89111328 C69.48469131 7.35608719 68.38637482 7.8210611 67.254776 8.30012512 C64.27097213 9.56221126 61.28483968 10.81857969 58.29758072 12.07246017 C53.35618446 14.14893196 48.42098544 16.24014284 43.48441505 18.32805443 C41.62168063 19.11558577 39.7585758 19.90223586 37.89543152 20.688797 C30.40466068 23.85466866 22.93109192 27.05657713 15.47753906 30.30908203 C14.60904327 30.68768372 13.74054749 31.0662854 12.84573364 31.45635986 C9.61251461 32.86706198 6.3799221 34.27905142 3.1517334 35.70123291 C0.99664157 36.65052018 -1.16108006 37.59357892 -3.31933594 38.53564453 C-4.51002686 39.05956787 -5.70071777 39.58349121 -6.92749023 40.12329102 C-9.80761719 41.22705078 -9.80761719 41.22705078 -12.80761719 41.22705078 C-12.80761719 28.35705078 -12.80761719 15.48705078 -12.80761719 2.22705078 C-8.29371409 -0.02990077 -4.89944389 -0.04211379 0 0 Z " fill="#FDFEFE" transform="translate(268.8076171875,224.77294921875)"/>
<path d="M0 0 C0 12.87 0 25.74 0 39 C-29.37 39 -58.74 39 -89 39 C-84.50011458 34.50011458 -84.50011458 34.50011458 -81.01806641 33.05566406 C-80.23877274 32.72666611 -79.45947906 32.39766815 -78.65657043 32.05870056 C-77.39184151 31.54237816 -77.39184151 31.54237816 -76.1015625 31.015625 C-75.21035202 30.64244644 -74.31914154 30.26926788 -73.40092468 29.88478088 C-70.47939411 28.66388812 -67.55234487 27.45687711 -64.625 26.25 C-62.6053208 25.4093887 -60.58603705 24.56782668 -58.56713867 23.7253418 C-54.42747471 21.99882263 -50.28587165 20.27707208 -46.14306641 18.55810547 C-40.2965503 16.12841888 -34.46443885 13.66578209 -28.63671875 11.19140625 C-26.87484398 10.44432005 -25.11296263 9.69724935 -23.35107422 8.95019531 C-20.84175837 7.88600208 -18.33274989 6.82111784 -15.82476807 5.75378418 C-13.52650813 4.77651465 -11.22640121 3.80372917 -8.92578125 2.83203125 C-8.2477092 2.54235977 -7.56963715 2.25268829 -6.87101746 1.95423889 C-2.22804715 0 -2.22804715 0 0 0 Z " fill="#ECECED" transform="translate(256,227)"/>
</svg>
