<?xml version="1.0" encoding="UTF-8"?>
<svg version="1.1" xmlns="http://www.w3.org/2000/svg" width="512" height="512">
<path d="M0 0 C1.85124786 -0.03139798 3.70246523 -0.06463835 5.5536499 -0.0995636 C11.58755286 -0.2038719 17.62144958 -0.25648058 23.65600586 -0.30639648 C25.74725585 -0.32666614 27.8385028 -0.34725162 29.92974663 -0.3681469 C39.75837448 -0.46320028 49.58681931 -0.53440343 59.41581732 -0.57620674 C70.70459172 -0.62503421 81.98845442 -0.75658818 93.2754994 -0.95871121 C102.0403713 -1.11020201 110.80384551 -1.18361274 119.56999964 -1.20011181 C124.78845561 -1.21178828 130.00164235 -1.25550471 135.21867561 -1.38241768 C171.01727102 -2.20903169 171.01727102 -2.20903169 182.04710293 7.79863834 C185.17327719 11.16076404 187.95431309 14.62300617 190.56587029 18.3972187 C194.94670973 24.65187726 200.36145087 30.06294947 205.80834961 35.38500977 C209.84371691 39.37021996 213.70257968 43.40020125 217.37084961 47.72875977 C220.06865546 50.7311566 222.9387878 53.54761793 225.80834961 56.38500977 C229.84133071 60.37277807 233.70237423 64.39995882 237.37084961 68.72875977 C240.06865546 71.7311566 242.9387878 74.54761793 245.80834961 77.38500977 C249.84133071 81.37277807 253.70237423 85.39995882 257.37084961 89.72875977 C260.6078715 93.33125187 264.09204826 96.68812084 267.53515625 100.09228516 C271.06999172 103.60251263 274.45748925 107.17548104 277.64819336 111.00610352 C279.41334188 113.1134498 279.41334188 113.1134498 282.36953735 115.32302856 C285.87068249 118.84424501 286.01260241 121.84717491 286.05487061 126.67573547 C286.03329895 127.69209579 286.01172729 128.70845612 285.98950195 129.75561523 C285.99037811 130.83913773 285.99125427 131.92266022 285.99215698 133.03901672 C285.98798581 136.61081709 285.94135169 140.18072606 285.89428711 143.75219727 C285.88309341 146.23225885 285.87455405 148.71233372 285.86856079 151.19241333 C285.84567676 157.71277644 285.78675504 164.23233475 285.72033691 170.75238037 C285.65565538 177.40841492 285.63154394 184.06468394 285.60131836 190.72094727 C285.53701319 203.77597768 285.43579415 216.83045087 285.30834961 229.88500977 C286.19797897 230.0172847 287.08760834 230.14955963 288.00419617 230.2858429 C289.17279678 230.46205673 290.3413974 230.63827057 291.54541016 230.81982422 C292.70316452 230.99334915 293.86091888 231.16687408 295.05375671 231.34565735 C327.10691223 236.65751891 357.87672733 257.45508634 377.30834961 282.88500977 C378.30801758 284.16118164 378.30801758 284.16118164 379.32788086 285.46313477 C402.21893677 315.62334255 411.20359344 353.49675433 406.48583984 390.90307617 C402.53470519 417.77079181 391.46457431 443.54504669 373.30834961 463.88500977 C372.51686523 464.80797852 371.72538086 465.73094727 370.90991211 466.68188477 C365.2304341 473.16759782 359.18898116 478.69893159 352.30834961 483.88500977 C351.34541992 484.61333008 350.38249023 485.34165039 349.39038086 486.09204102 C324.30255781 504.24812081 296.33356183 513.10988383 265.43334961 513.13500977 C264.69158478 513.13568451 263.94981995 513.13635925 263.18557739 513.13705444 C252.27076885 513.12125535 241.90814373 512.72913556 231.30834961 509.88500977 C230.65737305 509.71340332 230.00639648 509.54179687 229.33569336 509.36499023 C204.06006888 502.55299028 181.35518623 489.92175726 163.30834961 470.88500977 C162.44209961 470.03938477 161.57584961 469.19375977 160.68334961 468.32250977 C155.13733917 462.63055168 150.37086492 456.7258502 145.93334961 450.13500977 C145.49224854 449.48483887 145.05114746 448.83466797 144.59667969 448.16479492 C142.56647807 445.09469523 141.05817407 442.48377406 140.30834961 438.88500977 C139.51635068 438.88869694 138.72435175 438.89238411 137.90835285 438.89618301 C118.59303664 438.98471166 99.2777612 439.05080554 79.96228504 439.09225845 C70.62126672 439.11284016 61.28038423 439.1408763 51.93945312 439.18676758 C43.79318145 439.22677034 35.64700822 439.25247446 27.50064105 439.26136374 C23.19143809 439.26655585 18.88251661 439.27866643 14.57340431 439.30792999 C10.50795746 439.33531212 6.44290497 439.34340935 2.37737465 439.33744049 C0.8944229 439.33853064 -0.58854363 439.34634785 -2.07141495 439.36183167 C-15.8700121 439.49870647 -27.23734677 436.76522616 -38.69165039 428.88500977 C-39.59915039 428.26625977 -40.50665039 427.64750977 -41.44165039 427.01000977 C-49.53858158 419.36290809 -56.1735453 408.15831547 -56.87898326 396.89360487 C-56.95608216 393.08070447 -56.96817794 389.27038103 -56.95907593 385.45698547 C-56.96281468 383.97456592 -56.9674171 382.49214833 -56.97280657 381.00973386 C-56.98502434 376.9441274 -56.98477755 372.8786033 -56.98241782 368.81298268 C-56.98200934 364.42495594 -56.99305185 360.0369555 -57.00253296 355.64894104 C-57.01913765 347.05454294 -57.02464228 338.46017227 -57.02575772 329.86575947 C-57.02670852 322.87803864 -57.03082045 315.89032684 -57.03715897 308.90260887 C-57.05477059 289.08323905 -57.06399806 269.26389088 -57.06249802 249.44451318 C-57.06241811 248.37630528 -57.06233819 247.30809737 -57.06225586 246.20751953 C-57.0621741 245.13800445 -57.06209234 244.06848937 -57.0620081 242.96656474 C-57.06119541 225.63832174 -57.08032896 208.31016572 -57.10853259 190.98194788 C-57.13727542 173.18170679 -57.15107209 155.3815081 -57.14934504 137.58124322 C-57.14868158 127.59090673 -57.15415444 117.6006614 -57.17570114 107.61034584 C-57.19393142 99.10329313 -57.19824517 90.59637288 -57.18468229 82.08930907 C-57.17816173 77.75158529 -57.17800231 73.41411549 -57.19538879 69.07641602 C-57.2111653 65.09935347 -57.20820961 61.12274533 -57.19082053 57.14569356 C-57.18776064 55.71299147 -57.19134466 54.28025508 -57.20254068 52.84759346 C-57.29835703 39.70829317 -54.69833961 29.39247593 -46.69165039 18.88500977 C-45.94915039 17.85375977 -45.20665039 16.82250977 -44.44165039 15.76000977 C-31.93775085 2.68775115 -17.21227638 0.12957624 0 0 Z " fill="#00ABE9" transform="translate(80.691650390625,-0.885009765625)"/>
<path d="M0 0 C5.31765729 4.93947847 9.84892536 10.30286812 14.25 16.0625 C14.91644531 16.91328125 15.58289063 17.7640625 16.26953125 18.640625 C39.16058716 48.80083278 48.14524383 86.67424456 43.42749023 124.08056641 C39.47635558 150.94828204 28.4062247 176.72253693 10.25 197.0625 C9.45851563 197.98546875 8.66703125 198.9084375 7.8515625 199.859375 C2.17208449 206.34508806 -3.86936845 211.87642182 -10.75 217.0625 C-11.71292969 217.79082031 -12.67585937 218.51914062 -13.66796875 219.26953125 C-38.75579179 237.42561105 -66.72478778 246.28737407 -97.625 246.3125 C-98.36676483 246.31317474 -99.10852966 246.31384949 -99.87277222 246.31454468 C-110.78758076 246.29874559 -121.15020588 245.90662579 -131.75 243.0625 C-132.40097656 242.89089355 -133.05195313 242.71928711 -133.72265625 242.54248047 C-158.99828073 235.73048052 -181.70316337 223.0992475 -199.75 204.0625 C-200.61625 203.216875 -201.4825 202.37125 -202.375 201.5 C-218.73654482 184.70788821 -228.43688912 164.73986009 -235.25 142.4375 C-235.48106445 141.68186768 -235.71212891 140.92623535 -235.95019531 140.14770508 C-239.35177748 128.25894314 -240.16005889 116.30690943 -240.125 104 C-240.12445618 103.27738983 -240.12391235 102.55477966 -240.12335205 101.81027222 C-240.08208102 89.83985802 -239.06816249 78.59925938 -235.75 67.0625 C-235.54632813 66.31581055 -235.34265625 65.56912109 -235.1328125 64.79980469 C-229.38630181 44.12832873 -218.47846891 24.90298423 -203.79296875 9.28125 C-201.68983961 7.05111021 -201.68983961 7.05111021 -199.6953125 4.4765625 C-180.38051935 -19.49239767 -145.18205467 -33.74923102 -115.5625 -37.125 C-71.87832914 -41.51908551 -32.990916 -28.95308483 0 0 Z " fill="#FDDA41" transform="translate(443.75,265.9375)"/>
<path d="M0 0 C3.50508307 0.03354146 5.54992897 0.43376361 8.3125 2.625 C11.82682867 6.49076154 11.93369769 9.35136701 11.97071838 14.449646 C11.9805072 15.47325729 11.99029602 16.49686859 12.00038147 17.55149841 C12.00613693 18.66855667 12.0118924 19.78561493 12.01782227 20.93652344 C12.02772186 22.11728958 12.03762146 23.29805573 12.04782104 24.51460266 C12.0739831 27.74772108 12.09585577 30.9808344 12.11582303 34.21399593 C12.13771466 37.5946154 12.16508778 40.97519038 12.19187927 44.35577393 C12.24176325 50.75528164 12.28671798 57.15481411 12.32990164 63.55437016 C12.37931076 70.84093161 12.43421524 78.12744841 12.48958123 85.41396666 C12.60333532 100.40093614 12.71018863 115.3879477 12.8125 130.375 C14.4041525 128.79609015 15.99396337 127.21532368 17.58300781 125.63378906 C18.46853333 124.75370178 19.35405884 123.8736145 20.26641846 122.96685791 C23.0173755 120.16644102 25.60017094 117.26542933 28.15429688 114.28710938 C31.02595282 110.97574168 34.05148334 107.80922723 37.0625 104.625 C42.59848006 98.75572721 42.59848006 98.75572721 48.0546875 92.8125 C48.54549805 92.27077148 49.03630859 91.72904297 49.54199219 91.17089844 C50.84621922 89.7261179 52.14593819 88.27727143 53.4453125 86.828125 C57.00713703 83.13699331 60.32682194 79.77964527 65.5 78.9375 C69.53901539 79.47095486 71.51919863 80.61598287 74.41796875 83.4296875 C76.60259842 86.47715409 77.07893795 88.73726387 76.8203125 92.46484375 C74.47349013 99.24152074 68.74546888 104.34557642 63.8125 109.375 C62.96945312 110.23738281 62.12640625 111.09976563 61.2578125 111.98828125 C59.86831625 113.38018148 58.46594705 114.75953555 57.04296875 116.1171875 C54.46755297 118.7241758 52.09411054 121.47122784 49.69311523 124.23828125 C46.63030492 127.71818724 43.43948551 131.07402818 40.25 134.4375 C38.83960429 135.93076345 37.42945279 137.42425759 36.01953125 138.91796875 C35.31650879 139.66224121 34.61348633 140.40651367 33.88916016 141.17333984 C30.72922724 144.52347799 27.58103433 147.88447695 24.4375 151.25 C23.86596191 151.86133789 23.29442383 152.47267578 22.70556641 153.10253906 C20.05599453 155.94317477 17.42232128 158.79575291 14.82421875 161.68359375 C14.36515137 162.1935791 13.90608398 162.70356445 13.43310547 163.22900391 C12.218706 164.58302078 11.00952166 165.9417101 9.80078125 167.30078125 C6.9973416 170.22539118 4.76465173 171.73462463 0.75 172.0625 C-4.90235221 171.90726577 -7.71866899 168.95229155 -11.6015625 165.1171875 C-15.17035983 161.33275287 -18.73038053 157.54523972 -22.20703125 153.67578125 C-25.46530143 150.05146255 -28.79313098 146.49407118 -32.125 142.9375 C-36.9621688 137.7661006 -41.77937237 132.57736666 -46.57128906 127.36401367 C-49.98681707 123.6551933 -53.44309908 119.987172 -56.91210938 116.32836914 C-59.45236915 113.63866374 -61.9713445 110.92983842 -64.48242188 108.21289062 C-65.55750743 107.05406415 -66.63874072 105.90088269 -67.72851562 104.75585938 C-75.67867635 96.36585574 -75.67867635 96.36585574 -76.0625 90 C-75.70516657 86.54211192 -75.13266053 85.2935717 -73.125 82.3125 C-69.58718652 79.97904856 -67.4237654 79.375 -63.1875 79.375 C-58.26149253 81.35215094 -54.87314264 84.28354866 -51.25 88.0625 C-50.72639893 88.59705811 -50.20279785 89.13161621 -49.66333008 89.68237305 C-46.2348963 93.2084437 -42.95051056 96.83732416 -39.76171875 100.58203125 C-37.60291177 103.04082134 -35.27083895 105.30207782 -32.9375 107.59375 C-30.48242602 110.09266459 -28.22671997 112.74892581 -25.94140625 115.40234375 C-23.75299562 117.86369646 -21.43363243 120.1611322 -19.05859375 122.44140625 C-17.31768892 124.24046239 -15.69497574 126.09191322 -14.07055664 127.99584961 C-13.53056534 128.62808945 -12.99057404 129.26032928 -12.43421936 129.91172791 C-12.02280197 130.3946077 -11.61138458 130.87748749 -11.1875 131.375 C-11.18695523 130.73539243 -11.18641047 130.09578485 -11.18584919 129.43679523 C-11.17087949 113.87106478 -11.12842545 98.30568837 -11.05540943 82.74013233 C-11.02076151 75.21270828 -10.9954042 67.68546731 -10.99194336 60.15795898 C-10.98890316 53.59667594 -10.9684056 47.03571897 -10.92697543 40.47456187 C-10.90564822 37.0006223 -10.89304299 33.52714626 -10.90134621 30.05314064 C-10.91029011 26.1741878 -10.88025741 22.29606769 -10.84692383 18.41723633 C-10.85554947 17.26637039 -10.86417511 16.11550446 -10.87306213 14.92976379 C-10.74789564 6.26210765 -10.74789564 6.26210765 -7.70878601 3.18486023 C-6.87676163 2.58760635 -6.04473724 1.99035248 -5.1875 1.375 C-3.63766739 -0.17483261 -2.15081622 0.09367039 0 0 Z " fill="#0A3962" transform="translate(345.1875,284.625)"/>
<path d="M0 0 C7.40610532 6.28019884 7.40610532 6.28019884 10.5 9.3671875 C11.07306885 9.93832275 11.6461377 10.50945801 12.23657227 11.09790039 C12.81850342 11.68434326 13.40043457 12.27078613 14 12.875 C14.61738037 13.49431396 15.23476074 14.11362793 15.87084961 14.75170898 C19.43123385 18.34603307 22.83141767 22.01427281 26.09765625 25.87890625 C29.32501185 29.47737461 32.80624973 32.8252353 36.24243164 36.22290039 C39.68388165 39.64055815 42.92608651 43.14278209 46.0625 46.84375 C48.76030585 49.84614683 51.63043819 52.66260817 54.5 55.5 C58.5329811 59.48776831 62.39402462 63.51494905 66.0625 67.84375 C68.76030585 70.84614683 71.63043819 73.66260817 74.5 76.5 C78.5329811 80.48776831 82.39402462 84.51494905 86.0625 88.84375 C89.29883127 92.44547351 92.78221095 95.80166496 96.22460938 99.20507812 C99.83685972 102.792156 103.27678277 106.46307989 106.56640625 110.3515625 C107.95496485 111.94821571 109.4106044 113.41154882 110.9375 114.875 C113 117 113 117 113 119 C102.90697268 119.06981635 92.81400376 119.12297085 82.72078323 119.15543652 C78.03300638 119.17102622 73.34539595 119.19214067 68.65771484 119.22631836 C64.12542864 119.25915254 59.59330152 119.27690323 55.06090546 119.28463173 C53.3403244 119.29013239 51.61975106 119.30087259 49.89923859 119.31719017 C34.35717419 119.45859768 22.24227314 118.1617696 10.22265625 107.41015625 C1.94850698 98.79914594 -0.16760364 87.09794686 -0.11352539 75.60791016 C-0.11367142 74.78773407 -0.11381744 73.96755798 -0.1139679 73.12252808 C-0.11327462 70.42801208 -0.10550972 67.73356633 -0.09765625 65.0390625 C-0.09578999 63.16433754 -0.09436707 61.2896121 -0.09336853 59.41488647 C-0.08955973 54.49284507 -0.07974346 49.57083341 -0.06866455 44.64880371 C-0.05841519 39.62134198 -0.05386337 34.59387543 -0.04882812 29.56640625 C-0.03811968 19.71092447 -0.02106297 9.85546471 0 0 Z " fill="#00EED1" transform="translate(252,0)"/>
<path d="M0 0 C1.25895081 -0.0071553 2.51790161 -0.01431061 3.81500244 -0.02168274 C5.20773291 -0.02452277 6.60046364 -0.02723453 7.99319458 -0.02983093 C9.46186483 -0.03609828 10.93053349 -0.04274533 12.39920044 -0.04974365 C17.21844384 -0.07074883 22.03768743 -0.08114064 26.85696411 -0.09111023 C28.51729473 -0.09515868 30.17762519 -0.09927563 31.83795547 -0.10346031 C39.63661991 -0.1225018 47.43527492 -0.13673673 55.23395813 -0.14507228 C64.2331495 -0.15485036 73.23209528 -0.18118901 82.2312001 -0.22157317 C89.19013009 -0.25172972 96.14898964 -0.26654059 103.10798371 -0.26985329 C107.26318972 -0.27220371 111.41813303 -0.28116333 115.57326889 -0.30631447 C119.48200323 -0.32959326 123.39030183 -0.33382944 127.29908752 -0.32355309 C128.73176142 -0.32305761 130.16445676 -0.32938158 131.59706497 -0.34310913 C144.94914426 -0.46387193 144.94914426 -0.46387193 149.86477661 4.14717102 C146.3899378 7.73059854 142.75595471 11.00233451 138.92727661 14.20576477 C136.67075067 16.14694257 136.67075067 16.14694257 135.06387329 19.22296143 C133.16732541 21.48727769 132.13307957 22.09123814 129.20524597 22.70160103 C125.66333242 22.90986791 122.16462039 22.92288204 118.61672974 22.87593079 C117.25465576 22.87915144 115.89258583 22.88497077 114.53053284 22.89318848 C110.83805471 22.90770971 107.14666717 22.88480008 103.45432091 22.85432935 C99.58761244 22.82794247 95.72093664 22.83326107 91.85415649 22.83441162 C85.36092931 22.83160346 78.86812314 22.80557725 72.37503052 22.76460266 C64.87171409 22.71742753 57.36885863 22.70160844 49.86540461 22.70380932 C41.87213926 22.70583712 33.87905126 22.68500535 25.88583946 22.65746951 C23.58483072 22.65108089 21.28385066 22.6489467 18.98283386 22.64775276 C15.36460116 22.64473476 11.74675408 22.62638326 8.12864876 22.59625435 C6.16995826 22.58333878 4.21118863 22.5849915 2.25245667 22.58708191 C1.08324173 22.57428696 -0.08597321 22.561492 -1.2906189 22.54830933 C-2.30454964 22.54328179 -3.31848038 22.53825426 -4.36313629 22.53307438 C-8.63198587 21.93880611 -11.26693759 20.22504305 -13.94772339 16.89717102 C-15.49942156 13.30376473 -15.68030376 11.03086865 -15.13522339 7.14717102 C-13.4960363 4.23956536 -11.58274479 1.67720772 -8.34679985 0.49230671 C-5.54118353 0.05446595 -2.84074408 0.01108996 0 0 Z " fill="#083863" transform="translate(107.13522338867188,254.8528289794922)"/>
<path d="M0 0 C1.46986359 -0.01062721 1.46986359 -0.01062721 2.96942139 -0.02146912 C4.58015785 -0.01775299 4.58015785 -0.01775299 6.22343445 -0.01396179 C7.35540253 -0.01907272 8.48737061 -0.02418365 9.65364075 -0.02944946 C13.40702051 -0.04338384 17.16021739 -0.04238553 20.91362 -0.04008484 C23.51812814 -0.04397014 26.12263565 -0.04830447 28.72714233 -0.05307007 C34.19223152 -0.06128701 39.65726902 -0.06037298 45.12236023 -0.05497742 C51.43271617 -0.04894289 57.74284884 -0.0612343 64.05316669 -0.08254749 C70.12883477 -0.10231133 76.20439874 -0.10533419 82.28009605 -0.10181236 C84.86247977 -0.10232603 87.44486701 -0.1075722 90.02723122 -0.11762428 C93.63968211 -0.12995773 97.25161684 -0.12321453 100.86405945 -0.11161804 C101.93181107 -0.11926178 102.99956268 -0.12690552 104.09967041 -0.13478088 C109.55166709 -0.09608883 113.57005812 0.10878852 118.23783875 3.26069641 C121.21969046 6.62483681 122.23783875 8.29737349 122.23783875 12.82319641 C121.14074504 16.59445603 120.04474613 18.53175867 117.23783875 21.26069641 C113.81150568 22.90716499 111.06508261 23.51304944 107.27986145 23.52812195 C106.30706238 23.53665192 105.33426331 23.54518188 104.33198547 23.55397034 C103.2762735 23.55306396 102.22056152 23.55215759 101.13285828 23.55122375 C100.01195801 23.55794098 98.89105774 23.5646582 97.7361908 23.57157898 C94.03096585 23.59057607 90.32592186 23.59448401 86.62065125 23.59663391 C84.0438174 23.60306037 81.46698428 23.60978861 78.89015198 23.61680603 C73.48828631 23.6287829 68.0864924 23.63257208 62.68461609 23.63130188 C56.45143382 23.63010073 50.21859795 23.65120081 43.98550332 23.68278921 C37.97710007 23.71214781 31.96888416 23.71927653 25.96039963 23.71808243 C23.40953532 23.72044179 20.85866842 23.72928407 18.30784988 23.74474716 C14.73881078 23.76435769 11.17066193 23.7585876 7.60160828 23.74653625 C6.54994476 23.75777527 5.49828125 23.76901428 4.41474915 23.78059387 C-1.85061589 23.72687563 -5.68042711 23.02154467 -10.76216125 19.26069641 C-13.4329276 15.25454689 -13.59003711 11.97131002 -12.76216125 7.26069641 C-9.17835142 2.70828933 -5.84821288 0.01408714 0 0 Z " fill="#073B67" transform="translate(104.76216125488281,198.7393035888672)"/>
<path d="M0 0 C1.13214432 -0.00043808 2.26428864 -0.00087616 3.43074036 -0.00132751 C7.16974176 0.0007611 10.9082938 0.02409644 14.6472168 0.04760742 C17.2408168 0.05320309 19.83441998 0.05747333 22.42802429 0.06047058 C28.55490511 0.07075137 34.6816007 0.09439124 40.80841178 0.12451905 C47.7853976 0.15808088 54.76239122 0.17455353 61.7394377 0.18960536 C76.08769006 0.22094145 90.43580708 0.27369079 104.78393555 0.34057617 C103.64293925 3.82134827 102.49533371 7.29990503 101.34643555 10.77807617 C100.85820312 12.26791016 100.85820312 12.26791016 100.36010742 13.7878418 C100.04750977 14.73208008 99.73491211 15.67631836 99.4128418 16.64916992 C99.12481689 17.52371826 98.83679199 18.3982666 98.54003906 19.29931641 C97.78393555 21.34057617 97.78393555 21.34057617 96.78393555 22.34057617 C95.40623246 22.44245188 94.02337657 22.47575195 92.641922 22.48101807 C91.30239471 22.48958328 91.30239471 22.48958328 89.93580627 22.49832153 C88.45454506 22.49999832 88.45454506 22.49999832 86.94335938 22.50170898 C85.90921906 22.50667389 84.87507874 22.51163879 83.80960083 22.51675415 C80.3700495 22.53142256 76.93054433 22.53818654 73.4909668 22.54370117 C71.10780332 22.54945002 68.72463987 22.55520778 66.34147644 22.56097412 C61.33523339 22.57149828 56.32900647 22.57733126 51.32275391 22.58081055 C44.90778092 22.58628961 38.4930208 22.61029931 32.07811451 22.6387825 C27.1513151 22.65741017 22.22456686 22.66261462 17.29773521 22.66414642 C14.9330498 22.66717461 12.56836531 22.67520867 10.20371437 22.6883316 C6.89280694 22.70538979 3.58241794 22.70351182 0.27148438 22.69702148 C-1.19459511 22.71084366 -1.19459511 22.71084366 -2.69029236 22.72494507 C-8.86666721 22.68702585 -13.39204902 21.97632391 -18.09106445 17.59057617 C-19.71946802 14.33376903 -19.59439531 11.9347193 -19.21606445 8.34057617 C-15.4195767 -0.45129021 -8.42938032 -0.08523207 0 0 Z " fill="#083863" transform="translate(111.216064453125,311.659423828125)"/>
</svg>
