<?xml version="1.0" encoding="UTF-8"?>
<svg version="1.1" xmlns="http://www.w3.org/2000/svg" width="480" height="480">
<path d="M0 0 C0.76246033 -0.00794586 1.52492065 -0.01589172 2.31048584 -0.02407837 C23.35644551 -0.19234876 43.58112622 3.70251434 60.875 16.375 C61.85533203 17.06335938 61.85533203 17.06335938 62.85546875 17.765625 C71.75688314 24.60379765 76.37667335 35.01957828 78.5625 45.75 C79.83475112 60.50811301 77.33723014 74.00614568 70.875 87.375 C70.45605469 88.26445312 70.03710938 89.15390625 69.60546875 90.0703125 C56.45428827 116.06947622 31.84310824 134.88279903 4.625 144.125 C-21.34588829 152.59669856 -53.82097588 158.51108294 -79.5 146.625 C-86.74779978 142.72085185 -93.31528142 137.84204841 -97.125 130.375 C-97.69847449 127.67427826 -97.93412518 125.14268488 -98.125 122.375 C-96.41796875 121.64453125 -96.41796875 121.64453125 -94.125 121.375 C-91.86328125 122.88671875 -91.86328125 122.88671875 -89.4375 125.0625 C-76.16609019 136.22919284 -60.73369778 136.43472598 -44.125 135.375 C-17.87274888 132.58049704 8.17572427 120.82640649 27.875 103.375 C28.78765625 102.57449219 29.7003125 101.77398437 30.640625 100.94921875 C41.35965946 90.904234 51.79057659 75.65920615 53.11328125 60.67578125 C53.30590011 52.92033757 52.62028871 46.61333938 47.33203125 40.62890625 C34.01218382 28.40634603 14.71990775 27.74852824 -2.41113281 28.23876953 C-41.4585186 30.1988668 -80.02353199 48.04476837 -112.125 69.375 C-112.85251465 69.85678711 -113.5800293 70.33857422 -114.32958984 70.83496094 C-124.02130151 77.31577923 -132.77587792 84.23615211 -141.125 92.375 C-142.32189453 93.46167969 -142.32189453 93.46167969 -143.54296875 94.5703125 C-152.87052484 103.27175036 -159.62780182 114.09317305 -163.125 126.375 C-163.40730469 127.28572266 -163.40730469 127.28572266 -163.6953125 128.21484375 C-166.0680544 140.14326441 -164.06059382 151.77213377 -157.43359375 161.98046875 C-155.45087593 164.58407941 -153.35186356 166.97683924 -151.125 169.375 C-149.84496094 170.77492187 -149.84496094 170.77492187 -148.5390625 172.203125 C-141.11658298 180.0752155 -132.73389351 186.45843672 -124.07714844 192.90576172 C-116.86491924 198.33387519 -110.0609175 204.22981822 -103.4140625 210.33203125 C-101.05164677 212.44046713 -98.60389682 214.4057997 -96.125 216.375 C-92.25049846 214.24429553 -88.37685189 212.11204635 -84.50390625 209.97851562 C-83.19325352 209.25676242 -81.88238964 208.53539248 -80.57128906 207.81445312 C-76.72772135 205.70078609 -72.88950835 203.57782895 -69.05636597 201.4453125 C-67.11137913 200.36745167 -65.16043872 199.30091897 -63.20922852 198.234375 C-61.96081681 197.54217763 -60.71267752 196.84948868 -59.46484375 196.15625 C-58.36003662 195.54845703 -57.25522949 194.94066406 -56.11694336 194.31445312 C-52.08005062 191.69763746 -49.24521906 188.49050467 -46.1796875 184.82421875 C-38.85895823 176.09779812 -29.02691732 168.55388064 -17.51171875 166.8359375 C-11.77303313 166.69295779 -7.8580972 166.89745389 -3.125 170.375 C0.28180541 176.09356622 1.00336864 180.53813591 0.9375 187.125 C0.92847656 188.29546875 0.91945312 189.4659375 0.91015625 190.671875 C0.89275391 192.00992188 0.89275391 192.00992188 0.875 193.375 C1.535 193.045 2.195 192.715 2.875 192.375 C6.23615342 192.07623081 8.51892627 192.24048326 11.6875 193.4375 C13.875 195.375 13.875 195.375 14.64013672 198.41748047 C14.92471552 203.21272202 14.05497721 207.0292214 12.8203125 211.6328125 C12.59930878 212.4988913 12.37830505 213.36497009 12.15060425 214.2572937 C11.44593067 217.00817787 10.72349108 219.75401154 10 222.5 C9.28776543 225.25406997 8.57914338 228.00905178 7.87081909 230.76412964 C7.42990599 232.47338253 6.98597087 234.18185953 6.53860474 235.88943481 C4.44040145 243.67964343 4.44040145 243.67964343 3.8125 251.6875 C3.8434375 253.5128125 3.8434375 253.5128125 3.875 255.375 C12.58750402 239.87679574 19.67505077 223.69467142 26.78607178 207.42205811 C28.80164495 202.81127836 30.83603429 198.20965986 32.89349365 193.61741638 C34.17389033 190.75838002 35.44689269 187.89608411 36.71887207 185.03329468 C37.31118474 183.70418192 37.90636316 182.37634159 38.50476074 181.04995728 C42.03708994 173.21081814 44.82732306 165.61284268 46.73144531 157.21630859 C48.14280684 153.70959949 49.48333597 152.9093862 52.875 151.375 C59.94863395 149.52238158 68.20474383 149.22157485 74.875 152.375 C75.205 152.705 75.535 153.035 75.875 153.375 C75.55201866 158.38121071 74.80774221 162.77914221 73.3125 167.5625 C70.33019507 178.08136863 71.16517186 189.13098895 74.875 199.375 C75.85690025 201.05239371 76.85478513 202.72063021 77.875 204.375 C93.78178248 177.8795557 93.78178248 177.8795557 104.68359375 149.140625 C106.81755931 141.21175742 106.81755931 141.21175742 109.671875 138.953125 C116.59169055 136.27611607 125.57796681 136.3007417 132.703125 138.08203125 C134.875 139.375 134.875 139.375 135.8046875 141.59765625 C135.89164805 145.03259803 135.10965558 147.56388763 134 150.8125 C128.60779493 166.7817227 131.14635556 179.74418379 138.4140625 194.48046875 C139.13722656 195.91326172 139.13722656 195.91326172 139.875 197.375 C141.22078125 196.88580078 141.22078125 196.88580078 142.59375 196.38671875 C166.61429701 187.87380822 190.88224399 185.79320799 214.64453125 196.640625 C227.70502817 203.65254838 236.20490375 214.36471124 240.875 228.375 C241.5728965 239.19811622 241.89787669 248.37545284 234.625 257.0625 C233.7175 257.825625 232.81 258.58875 231.875 259.375 C231.27558594 259.90222656 230.67617188 260.42945313 230.05859375 260.97265625 C225.32549596 264.89066088 222.01473918 266.1557236 215.875 266.375 C215.875 264.25 215.875 264.25 216.875 261.375 C218.546875 260.0234375 218.546875 260.0234375 220.625 258.625 C225.31006122 255.31343695 228.01675284 251.82985458 229.875 246.375 C231.25465679 237.91391895 229.26365799 231.15072525 224.3671875 224.25 C215.04542307 212.80374043 202.12827835 208.29401808 187.875 206.375 C183.62070426 206.06760674 179.38953174 205.99494649 175.125 206 C173.9920752 205.99871094 172.85915039 205.99742187 171.69189453 205.99609375 C162.8660348 206.10703157 155.16009499 207.31252265 146.875 210.375 C147.019375 211.04144531 147.16375 211.70789063 147.3125 212.39453125 C149.39253147 222.72246527 150.68243611 232.08310222 144.875 241.375 C142.73421338 244.25764337 140.40688625 246.83229373 137.875 249.375 C137.37484375 249.89835938 136.8746875 250.42171875 136.359375 250.9609375 C128.53469384 258.42995133 116.04345877 264.4964993 105.1875 264.3125 C100.97918907 263.12146861 99.4066531 261.94909849 96.875 258.375 C94.21841929 250.2084741 97.17976097 241.7519707 100.625 234.25 C105.61927412 224.94507863 113.40144459 216.75086188 120.875 209.375 C120.16923828 207.95960938 120.16923828 207.95960938 119.44921875 206.515625 C115.05407221 197.52175484 110.875 188.58494342 110.875 178.375 C110.215 178.375 109.555 178.375 108.875 178.375 C108.55208984 179.550625 108.55208984 179.550625 108.22265625 180.75 C106.41805813 185.60410742 103.90646087 189.90362426 101.3125 194.375 C100.51646362 195.76525391 100.51646362 195.76525391 99.7043457 197.18359375 C95.85579124 203.84879782 91.74628453 210.26510789 87.32421875 216.5625 C85.65078462 219.21435198 85.65078462 219.21435198 86.04296875 221.8359375 C86.31753906 222.67382812 86.59210938 223.51171875 86.875 224.375 C89.68181963 235.63006882 91.53260218 245.49729564 86.15625 256.25 C79.03246994 268.06504985 67.61307057 273.21836645 54.875 277.375 C51.1875 278.1875 51.1875 278.1875 47.875 278.375 C47.06160156 278.42527344 46.24820313 278.47554688 45.41015625 278.52734375 C40.37643108 278.71213542 36.96400075 278.67258125 32.875 275.375 C31.875 274.375 31.875 274.375 31.5625 270.6875 C31.65621948 266.26706475 33.08957306 263.71751233 35.875 260.375 C36.49632812 259.59640625 37.11765625 258.8178125 37.7578125 258.015625 C41.45299672 253.43306679 45.23927427 248.93309015 49.08276367 244.47485352 C50.49165843 242.82228428 51.86703922 241.14552561 53.2421875 239.46484375 C54.90268609 237.45061864 56.48268699 235.82918996 58.4453125 234.06640625 C61.08555713 231.41196675 62.1772988 230.08677037 62.875 226.375 C61.29428126 219.83110417 57.97881257 213.84410425 55.01318359 207.84326172 C52.87487826 203.20613882 51.77871601 198.39218198 50.875 193.375 C49.02437051 196.15094424 47.76983745 198.71689948 46.44140625 201.765625 C45.96316406 202.85593018 45.48492187 203.94623535 44.9921875 205.06958008 C44.47914063 206.24286865 43.96609375 207.41615723 43.4375 208.625 C15.00796903 273.11683865 15.00796903 273.11683865 0.875 283.375 C-2.77788193 284.59262731 -5.28254136 284.76575851 -9.125 284.375 C-13.45234012 281.51732256 -15.58855739 279.27033231 -17.125 274.375 C-17.62654657 271.44913271 -17.94808115 268.51487035 -18.25 265.5625 C-18.33636719 264.77423828 -18.42273438 263.98597656 -18.51171875 263.17382812 C-18.72251064 261.24156916 -18.92462896 259.30836737 -19.125 257.375 C-19.42156494 258.02984375 -19.71812988 258.6846875 -20.02368164 259.359375 C-21.39748274 262.37126176 -22.79227298 265.37298213 -24.1875 268.375 C-24.65349609 269.40496094 -25.11949219 270.43492187 -25.59960938 271.49609375 C-29.11454781 279.00419353 -33.07278495 287.03074546 -41.125 290.375 C-46.21059133 291.03566594 -50.70909573 290.98944902 -55.4375 288.9375 C-65.08047296 279.74303741 -69.55647969 266.03984525 -70.328125 252.921875 C-70.47882962 240.71480085 -68.51473197 229.32365985 -66.125 217.375 C-73.055 221.335 -79.985 225.295 -87.125 229.375 C-86.135 232.345 -85.145 235.315 -84.125 238.375 C-79.75120166 260.08026663 -82.82757132 281.66344485 -95.125 300.375 C-106.91325119 315.71023613 -123.61029341 327.71087623 -143.125 330.375 C-166.31760738 332.10556098 -166.31760738 332.10556098 -175.19921875 325.93359375 C-181.50096678 320.23956146 -184.78766123 312.28576769 -185.36328125 303.90625 C-185.60870137 295.02027284 -184.8527091 287.59962801 -181.125 279.375 C-180.59326172 278.17037109 -180.59326172 278.17037109 -180.05078125 276.94140625 C-168.94540163 255.6064656 -144.2831332 242.57833749 -124.125 231.375 C-122.8565625 230.66899658 -122.8565625 230.66899658 -121.5625 229.94873047 C-119.41749287 228.7559892 -117.27167224 227.56474107 -115.125 226.375 C-121.5008676 220.83014436 -128.12906504 215.90852555 -135.125 211.1875 C-149.92069912 201.17435329 -164.49140346 191.07868584 -177.125 178.375 C-178.02734375 177.47265625 -178.9296875 176.5703125 -179.859375 175.640625 C-191.48456498 163.45178945 -199.81980962 149.87919826 -199.59594727 132.78100586 C-198.55462139 107.9024325 -180.28987681 85.96484807 -163.125 69.375 C-159.57049652 66.21597077 -155.88896127 63.27862727 -152.125 60.375 C-151.33996094 59.72402344 -150.55492187 59.07304687 -149.74609375 58.40234375 C-117.8574828 31.97734983 -76.28797194 12.72603179 -36.125 3.375 C-34.86042969 3.05789062 -33.59585938 2.74078125 -32.29296875 2.4140625 C-21.64818607 0.03735189 -10.85342348 0.05940291 0 0 Z M-22.0625 187.9375 C-23.00416016 188.65099609 -23.00416016 188.65099609 -23.96484375 189.37890625 C-29.68095908 194.66088624 -33.66845421 200.4937926 -37.25 207.375 C-37.68304443 208.20298096 -38.11608887 209.03096191 -38.56225586 209.8840332 C-45.95427378 224.500994 -49.45446993 241.29930213 -45.7578125 257.46484375 C-45.12205351 259.66638789 -45.12205351 259.66638789 -43.125 262.375 C-40.50627396 262.02270187 -39.38959372 261.68521635 -37.64819336 259.64355469 C-33.15903043 251.95881131 -29.8778339 243.90482739 -26.6875 235.625 C-26.40563843 234.9007785 -26.12377686 234.17655701 -25.83337402 233.4303894 C-22.29825447 224.3400641 -18.88335683 215.21798928 -15.875 205.9375 C-15.46229858 204.68211426 -15.46229858 204.68211426 -15.04125977 203.40136719 C-13.31091242 197.82838884 -12.19836761 192.23193606 -12.125 186.375 C-13.16462844 185.12330277 -13.16462844 185.12330277 -15.44140625 185.15234375 C-18.50933729 185.40688825 -19.6650339 186.05973003 -22.0625 187.9375 Z M125.4296875 221.5625 C121.17135888 226.15753367 118.23843899 231.06584609 115.4375 236.625 C115.08349121 237.32238281 114.72948242 238.01976562 114.36474609 238.73828125 C112.65433315 242.25568321 111.875 244.39808526 111.875 248.375 C118.1597044 247.59773974 121.67574343 243.85744343 125.875 239.375 C129.6853836 233.37075918 129.18006041 227.25580698 128.875 220.375 C126.82078703 220.16339051 126.82078703 220.16339051 125.4296875 221.5625 Z M-144.25 265.8125 C-152.0883735 273.92569453 -157.48904877 284.55694939 -157.33984375 295.9296875 C-157.05604054 299.15988407 -156.30490225 300.96959062 -154.125 303.375 C-150.38399764 305.86900157 -146.51503219 305.72361617 -142.1953125 305.15625 C-127.83589182 301.50245339 -116.4215628 292.67224483 -108.67602539 280.11889648 C-100.26955417 265.67070124 -99.24553782 252.67608755 -102.125 236.375 C-114.51443222 236.375 -135.4505564 257.63730069 -144.25 265.8125 Z M68.875 240.375 C68.34132813 241.04144531 67.80765625 241.70789063 67.2578125 242.39453125 C61.6876766 249.28492428 55.89575815 255.87660342 49.875 262.375 C50.535 262.705 51.195 263.035 51.875 263.375 C63.28411099 255.30832199 63.28411099 255.30832199 69.875 243.375 C69.545 242.385 69.215 241.395 68.875 240.375 Z " fill="#F06192" transform="translate(219.125,69.625)"/>
</svg>
