<svg xmlns="http://www.w3.org/2000/svg" version="1.1" xmlns:xlink="http://www.w3.org/1999/xlink" xmlns:svgjs="http://svgjs.dev/svgjs" width="1440" height="560" preserveAspectRatio="none" viewBox="0 0 1440 560"><g mask="url(&quot;#SvgjsMask1017&quot;)" fill="none"><path d="M890 330L728 492" stroke-width="10" stroke="url(&quot;#SvgjsLinearGradient1018&quot;)" stroke-linecap="round" class="TopRight"></path><path d="M1360 401L1536 225" stroke-width="8" stroke="url(&quot;#SvgjsLinearGradient1019&quot;)" stroke-linecap="round" class="BottomLeft"></path><path d="M271 195L483 -17" stroke-width="8" stroke="url(&quot;#SvgjsLinearGradient1019&quot;)" stroke-linecap="round" class="BottomLeft"></path><path d="M417 469L157 729" stroke-width="8" stroke="url(&quot;#SvgjsLinearGradient1018&quot;)" stroke-linecap="round" class="TopRight"></path><path d="M1078 474L801 751" stroke-width="8" stroke="url(&quot;#SvgjsLinearGradient1018&quot;)" stroke-linecap="round" class="TopRight"></path><path d="M17 102L-158 277" stroke-width="10" stroke="url(&quot;#SvgjsLinearGradient1019&quot;)" stroke-linecap="round" class="BottomLeft"></path><path d="M202 159L512 -151" stroke-width="10" stroke="url(&quot;#SvgjsLinearGradient1018&quot;)" stroke-linecap="round" class="TopRight"></path><path d="M115 414L522 7" stroke-width="10" stroke="url(&quot;#SvgjsLinearGradient1019&quot;)" stroke-linecap="round" class="BottomLeft"></path><path d="M867 49L1151 -235" stroke-width="8" stroke="url(&quot;#SvgjsLinearGradient1019&quot;)" stroke-linecap="round" class="BottomLeft"></path><path d="M95 413L471 37" stroke-width="8" stroke="url(&quot;#SvgjsLinearGradient1018&quot;)" stroke-linecap="round" class="TopRight"></path><path d="M1242 396L1467 171" stroke-width="10" stroke="url(&quot;#SvgjsLinearGradient1018&quot;)" stroke-linecap="round" class="TopRight"></path><path d="M187 199L399 -13" stroke-width="10" stroke="url(&quot;#SvgjsLinearGradient1019&quot;)" stroke-linecap="round" class="BottomLeft"></path><path d="M734 51L420 365" stroke-width="8" stroke="url(&quot;#SvgjsLinearGradient1019&quot;)" stroke-linecap="round" class="BottomLeft"></path><path d="M402 169L557 14" stroke-width="6" stroke="url(&quot;#SvgjsLinearGradient1019&quot;)" stroke-linecap="round" class="BottomLeft"></path><path d="M731 380L357 754" stroke-width="8" stroke="url(&quot;#SvgjsLinearGradient1018&quot;)" stroke-linecap="round" class="TopRight"></path><path d="M936 380L568 748" stroke-width="8" stroke="url(&quot;#SvgjsLinearGradient1019&quot;)" stroke-linecap="round" class="BottomLeft"></path><path d="M1299 18L1457 -140" stroke-width="6" stroke="url(&quot;#SvgjsLinearGradient1018&quot;)" stroke-linecap="round" class="TopRight"></path><path d="M1299 222L925 596" stroke-width="10" stroke="url(&quot;#SvgjsLinearGradient1019&quot;)" stroke-linecap="round" class="BottomLeft"></path><path d="M301 323L469 155" stroke-width="6" stroke="url(&quot;#SvgjsLinearGradient1018&quot;)" stroke-linecap="round" class="TopRight"></path><path d="M1397 216L1776 -163" stroke-width="10" stroke="url(&quot;#SvgjsLinearGradient1019&quot;)" stroke-linecap="round" class="BottomLeft"></path><path d="M379 243L736 -114" stroke-width="6" stroke="url(&quot;#SvgjsLinearGradient1018&quot;)" stroke-linecap="round" class="TopRight"></path><path d="M123 353L513 -37" stroke-width="10" stroke="url(&quot;#SvgjsLinearGradient1019&quot;)" stroke-linecap="round" class="BottomLeft"></path><path d="M1230 235L815 650" stroke-width="10" stroke="url(&quot;#SvgjsLinearGradient1018&quot;)" stroke-linecap="round" class="TopRight"></path><path d="M783 163L365 581" stroke-width="10" stroke="url(&quot;#SvgjsLinearGradient1018&quot;)" stroke-linecap="round" class="TopRight"></path><path d="M1305 180L1149 336" stroke-width="10" stroke="url(&quot;#SvgjsLinearGradient1018&quot;)" stroke-linecap="round" class="TopRight"></path><path d="M182 547L415 314" stroke-width="8" stroke="url(&quot;#SvgjsLinearGradient1019&quot;)" stroke-linecap="round" class="BottomLeft"></path><path d="M1130 480L1433 177" stroke-width="10" stroke="url(&quot;#SvgjsLinearGradient1019&quot;)" stroke-linecap="round" class="BottomLeft"></path><path d="M47 175L-137 359" stroke-width="6" stroke="url(&quot;#SvgjsLinearGradient1019&quot;)" stroke-linecap="round" class="BottomLeft"></path><path d="M838 191L577 452" stroke-width="6" stroke="url(&quot;#SvgjsLinearGradient1019&quot;)" stroke-linecap="round" class="BottomLeft"></path><path d="M242 550L500 292" stroke-width="10" stroke="url(&quot;#SvgjsLinearGradient1018&quot;)" stroke-linecap="round" class="TopRight"></path><path d="M1232 357L930 659" stroke-width="8" stroke="url(&quot;#SvgjsLinearGradient1019&quot;)" stroke-linecap="round" class="BottomLeft"></path><path d="M1111 554L890 775" stroke-width="8" stroke="url(&quot;#SvgjsLinearGradient1018&quot;)" stroke-linecap="round" class="TopRight"></path><path d="M197 422L609 10" stroke-width="8" stroke="url(&quot;#SvgjsLinearGradient1018&quot;)" stroke-linecap="round" class="TopRight"></path><path d="M470 27L296 201" stroke-width="8" stroke="url(&quot;#SvgjsLinearGradient1019&quot;)" stroke-linecap="round" class="BottomLeft"></path><path d="M728 83L896 -85" stroke-width="8" stroke="url(&quot;#SvgjsLinearGradient1019&quot;)" stroke-linecap="round" class="BottomLeft"></path><path d="M1270 278L1454 94" stroke-width="8" stroke="url(&quot;#SvgjsLinearGradient1018&quot;)" stroke-linecap="round" class="TopRight"></path><path d="M1278 367L1047 598" stroke-width="10" stroke="url(&quot;#SvgjsLinearGradient1018&quot;)" stroke-linecap="round" class="TopRight"></path><path d="M60 155L244 -29" stroke-width="8" stroke="url(&quot;#SvgjsLinearGradient1018&quot;)" stroke-linecap="round" class="TopRight"></path><path d="M1092 438L1309 221" stroke-width="8" stroke="url(&quot;#SvgjsLinearGradient1018&quot;)" stroke-linecap="round" class="TopRight"></path></g><defs><mask id="SvgjsMask1017"><rect width="1440" height="560" fill="#ffffff"></rect></mask><linearGradient x1="0%" y1="100%" x2="100%" y2="0%" id="SvgjsLinearGradient1018"><stop stop-color="rgba(255, 255, 255, 0)" offset="0"></stop><stop stop-color="rgba(255, 255, 255, 1)" offset="1"></stop></linearGradient><linearGradient x1="100%" y1="0%" x2="0%" y2="100%" id="SvgjsLinearGradient1019"><stop stop-color="rgba(255, 255, 255, 0)" offset="0"></stop><stop stop-color="rgba(255, 255, 255, 1)" offset="1"></stop></linearGradient></defs></svg>