<?xml version="1.0" encoding="UTF-8"?>
<svg version="1.1" xmlns="http://www.w3.org/2000/svg" width="512" height="512">
<path d="M0 0 C5.45987676 5.45987676 6.39388443 9.90151997 7.25 17.25 C8.22318369 17.24886084 9.19636738 17.24772168 10.19904149 17.246548 C67.8425627 17.17933836 125.48608244 17.12795466 183.12963463 17.09680401 C190.04670961 17.09306195 196.96378451 17.0891723 203.88085938 17.08520508 C204.5691973 17.0848128 205.25753523 17.08442052 205.96673188 17.08401636 C228.28413954 17.07122869 250.60152443 17.04869205 272.91891829 17.02110834 C296.49970494 16.99201599 320.08047134 16.97401408 343.6612767 16.96773452 C357.79071276 16.96361252 371.92008348 16.95058067 386.04949944 16.9262506 C395.73076209 16.91042641 405.41199083 16.90559211 415.09326549 16.90949587 C420.68378927 16.91142258 426.27419864 16.90841202 431.86470222 16.89238358 C436.97964611 16.87782527 442.09439825 16.87702115 447.20935081 16.88730332 C449.06274659 16.88857484 450.91615416 16.88473492 452.76952662 16.87535045 C455.28395563 16.86335594 457.79768742 16.86977267 460.31210518 16.88085651 C461.03594635 16.87297547 461.75978751 16.86509443 462.50556326 16.85697457 C467.13491474 16.90326115 470.32161433 17.79791214 474.25 20.25 C475.5210945 22.79218899 475.37770954 24.55994165 475.38142776 27.40718746 C475.38526891 28.50658907 475.38911005 29.60599068 475.3930676 30.73870748 C475.39220112 31.95648415 475.39133463 33.17426082 475.39044189 34.42893982 C475.39489858 36.35780654 475.39489858 36.35780654 475.3994453 38.32564026 C475.4075338 41.90682945 475.40930589 45.48799862 475.41004276 49.06919587 C475.41189008 52.926792 475.4194357 56.78437767 475.42617798 60.64196777 C475.43977429 69.08186281 475.44578785 77.52175311 475.45018864 85.96165729 C475.45294849 91.22786291 475.45718534 96.49406669 475.46169281 101.76027107 C475.47388646 116.33068826 475.48418605 130.90110397 475.4875679 145.47152615 C475.48778747 146.40449876 475.48800703 147.33747138 475.48823325 148.29871589 C475.48845153 149.23396193 475.48866981 150.16920797 475.4888947 151.1327948 C475.48933817 153.02806437 475.48978474 154.92333394 475.49023438 156.81860352 C475.4904558 157.75872923 475.49067723 158.69885495 475.49090537 159.66746933 C475.49485569 174.91017367 475.51231639 190.15283026 475.5355939 205.39551615 C475.55928016 221.03157745 475.57176848 236.66761477 475.57293582 252.30369431 C475.57385404 261.08823086 475.57964337 269.87270519 475.59775543 278.65722466 C475.61311961 286.13550816 475.61829872 293.61371022 475.61001733 301.0920065 C475.60609787 304.91008082 475.6071031 308.72799095 475.62107468 312.5460453 C475.63606027 316.67884235 475.62798573 320.81126584 475.61749268 324.94407654 C475.62554908 326.15962249 475.63360548 327.37516844 475.64190602 328.62754911 C475.63531618 329.72955847 475.62872633 330.83156782 475.6219368 331.9669714 C475.62283243 333.39897929 475.62283243 333.39897929 475.62374616 334.85991663 C475.1791503 337.70307941 474.53787609 338.55592308 472.25 340.25 C468.65992791 341.4466907 465.40140165 341.38643057 461.66563129 341.37304783 C460.88214112 341.37420167 460.09865094 341.37535552 459.29141864 341.37654433 C456.64423475 341.37920867 453.99711066 341.3746903 451.34992981 341.37025452 C449.44168273 341.37069026 447.53343571 341.37156521 445.62518901 341.37284368 C440.36443237 341.37508812 435.10369594 341.37106804 429.84294188 341.36606562 C424.176275 341.36176058 418.50960933 341.36320758 412.84294128 341.3639679 C403.01938925 341.3644931 393.19584384 341.3613467 383.37229347 341.35573006 C369.16896157 341.34761454 354.96563288 341.34499978 340.7622989 341.34374207 C317.72019273 341.34155163 294.67809052 341.33490033 271.63598633 341.32543945 C249.2482912 341.31625786 226.86059702 341.30917286 204.47290039 341.30493164 C203.78304114 341.30480011 203.09318189 341.30466859 202.38241781 341.30453308 C195.45468591 341.30321458 188.526954 341.30193876 181.59922209 341.30069422 C123.48281235 341.2902498 65.36640624 341.27260047 7.25 341.25 C7.25276538 341.79922874 7.25553076 342.34845749 7.25837994 342.91432953 C7.32474767 356.30280514 7.37414117 369.69125178 7.40543652 383.07985687 C7.42108049 389.55460244 7.44229596 396.02922911 7.47631836 402.50390625 C7.5089565 408.75439114 7.52686256 415.00476178 7.53463173 421.25532532 C7.54016719 423.63790179 7.55097658 426.02047214 7.56719017 428.40299988 C7.58902316 431.74471462 7.5919644 435.08595958 7.59057617 438.42773438 C7.601362 439.40885193 7.61214783 440.38996948 7.6232605 441.40081787 C7.58729673 449.42139587 6.14207768 456.35792232 0.25 462.25 C-6.58940974 466.98005907 -12.815926 468.19240966 -20.98828125 466.89453125 C-27.81930763 465.13663327 -31.7359823 460.90239228 -35.75 455.25 C-36.91422022 451.75733935 -36.89192857 448.63010728 -36.88422108 444.99753189 C-36.88657331 444.24990636 -36.88892554 443.50228084 -36.89134905 442.73199999 C-36.89804836 440.20675594 -36.89758055 437.68156324 -36.89717102 435.15631104 C-36.90046906 433.33554816 -36.9041945 431.51478601 -36.9083125 429.6940248 C-36.91834732 424.67482042 -36.92205167 419.655628 -36.92470181 414.636415 C-36.92860043 409.22932519 -36.93817901 403.82224489 -36.94691467 398.41516113 C-36.96669076 385.3498965 -36.97674637 372.28463108 -36.98564246 359.21935523 C-36.99002316 353.07073327 -36.9953905 346.92211218 -37.00063133 340.77349091 C-37.01764413 320.34144901 -37.0321394 299.90940766 -37.03938007 279.47735977 C-37.04129005 274.17338307 -37.04321037 268.86940637 -37.04516602 263.56542969 C-37.04564976 262.24711064 -37.0461335 260.92879158 -37.0466319 259.57052347 C-37.05493632 238.20354528 -37.08027997 216.83662698 -37.11274669 195.46967271 C-37.14578827 173.54617222 -37.16382617 151.62270017 -37.16702431 129.69917464 C-37.16919201 117.38441868 -37.1779787 105.06974426 -37.20348549 92.75501251 C-37.22515279 82.26962195 -37.23326246 71.78433274 -37.22351871 61.29892233 C-37.2189626 55.94720085 -37.22093629 50.59568867 -37.24028015 45.24399567 C-37.25783094 40.34617652 -37.25698006 35.44872061 -37.24138286 30.55089805 C-37.23899447 28.77765383 -37.24339373 27.00438499 -37.25521151 25.23117855 C-37.27027336 22.82228695 -37.26069854 20.41469193 -37.24498463 18.00583267 C-37.25520683 17.31595863 -37.26542904 16.62608458 -37.27596101 15.91530526 C-37.18983959 9.87418486 -35.00475047 5.8411235 -31.07421875 1.32421875 C-21.47197188 -6.81133647 -10.298942 -6.55387218 0 0 Z " fill="#000000" transform="translate(36.75,24.75)"/>
<path d="M0 0 C45.54 0 91.08 0 138 0 C138 96.36 138 192.72 138 292 C92.46 292 46.92 292 0 292 C-0.03738281 274.63761719 -0.07476562 257.27523437 -0.11328125 239.38671875 C-0.14354074 228.41730958 -0.17455223 217.44791117 -0.20898438 206.47851562 C-0.22703533 200.71850655 -0.24489941 194.95849695 -0.26245117 189.19848633 C-0.26465886 188.47653424 -0.26686655 187.75458216 -0.26914114 187.01075274 C-0.3045388 175.34596477 -0.32938152 163.68117687 -0.35034702 152.01635506 C-0.37208753 140.05059617 -0.40512119 128.08490716 -0.44870156 116.11920768 C-0.47286277 109.39593211 -0.49175234 102.67272622 -0.49761391 95.94940758 C-0.50363688 89.6268714 -0.52353524 83.30453378 -0.55427551 76.98207092 C-0.56310063 74.65642485 -0.56676915 72.33075287 -0.56500816 70.00509071 C-0.56336756 66.83984632 -0.57995072 63.67521605 -0.60127258 60.51005554 C-0.59642501 59.58107553 -0.59157743 58.65209551 -0.58658296 57.69496459 C-0.5960395 56.84949311 -0.60549604 56.00402163 -0.61523914 55.1329298 C-0.61713775 54.40196817 -0.61903635 53.67100653 -0.62099248 52.91789454 C-1.11977332 50.39391019 -1.99856679 49.58483076 -4 48 C-5.32 47.34 -6.64 46.68 -8 46 C-8 41.05 -8 36.1 -8 31 C-6.02 30.01 -4.04 29.02 -2 28 C2.18462795 19.63074409 -0.35962305 9.35019929 0 0 Z " fill="#FEFEFE" transform="translate(205,58)"/>
<path d="M0 0 C45.54 0 91.08 0 138 0 C138.33 8.91 138.66 17.82 139 27 C141.7018576 30.1490712 141.7018576 30.1490712 145 31 C145 35.95 145 40.9 145 46 C145.66 46.33 146.32 46.66 147 47 C145.2984375 47.433125 145.2984375 47.433125 143.5625 47.875 C142.386875 48.24625 141.21125 48.6175 140 49 C138.86759614 51.26480773 138.87047173 52.49592115 138.8613348 55.00988197 C138.85586036 55.8533624 138.85038591 56.69684283 138.84474558 57.56588328 C138.84376747 58.49777614 138.84278936 59.42966899 138.84178162 60.38980103 C138.83684364 61.37564599 138.83190566 62.36149096 138.82681805 63.37721002 C138.81138263 66.70150413 138.80306611 70.02577883 138.79467773 73.35009766 C138.78510396 75.72474846 138.77509418 78.09939754 138.76467896 80.4740448 C138.74038855 86.2663734 138.7206659 92.05870475 138.70292621 97.85105683 C138.68204549 104.58930471 138.65557976 111.32752709 138.62875474 118.0657535 C138.58106307 130.08288551 138.53780316 142.10002923 138.49731445 154.1171875 C138.45796753 165.79265252 138.41653188 177.46810706 138.37231445 189.14355469 C138.36956495 189.87023692 138.36681544 190.59691916 138.36398262 191.34562206 C138.34004874 197.66643757 138.31595626 203.98725247 138.29184818 210.30806732 C138.18819425 237.53869138 138.09495778 264.76934101 138 292 C92.46 292 46.92 292 0 292 C0 195.64 0 99.28 0 0 Z " fill="#249144" transform="translate(52,58)"/>
<path d="M0 0 C45.54 0 91.08 0 138 0 C138 96.36 138 192.72 138 292 C92.46 292 46.92 292 0 292 C0 195.64 0 99.28 0 0 Z " fill="#249144" transform="translate(359,58)"/>
<path d="M0 0 C2.89067654 2.89067654 2.25292025 4.94622843 2.25726891 8.99724388 C2.26077498 9.72941899 2.26428105 10.4615941 2.26789337 11.21595633 C2.27727352 13.69469368 2.2722672 16.17319948 2.26742554 18.65194702 C2.27115848 20.43686288 2.27575856 22.22177711 2.28115618 24.00668871 C2.29344571 28.9313476 2.29311875 33.85593886 2.29076743 38.78060961 C2.29036076 44.08405142 2.30138403 49.3874711 2.31088257 54.69090271 C2.3275261 65.08872937 2.33299362 75.48653336 2.33410732 85.88437222 C2.33505621 94.33252123 2.33915849 102.78066272 2.34550858 111.22880936 C2.36313008 135.15788401 2.37234602 159.0869407 2.37084763 183.01602189 C2.37076772 184.30720928 2.3706878 185.59839666 2.37060547 186.92871094 C2.37052371 188.22146689 2.37044195 189.51422284 2.37035771 190.84615321 C2.36954453 211.80460018 2.38868771 232.76297532 2.4168822 253.7214015 C2.44557462 275.21884517 2.45942451 296.71625378 2.45769465 318.2137171 C2.45702949 330.29196746 2.4625768 342.37014254 2.48405075 354.4483757 C2.5022147 364.73113075 2.50664942 375.01377639 2.4930319 385.29654048 C2.48647799 390.54661735 2.48647196 395.79648403 2.5037384 401.04654121 C2.51936769 405.8480308 2.51671024 410.64914178 2.49917014 415.45062156 C2.49607772 417.19221122 2.49981608 418.93382844 2.51089029 420.67538564 C2.52490319 423.03441358 2.51451222 425.39209344 2.49777794 427.75107384 C2.49821267 429.06382203 2.49864741 430.37657023 2.49909532 431.72909868 C1.91774394 435.53907831 1.06357275 436.73469373 -2 439 C-4.80949163 439.4796693 -6.23769077 439.50602628 -8.62874854 437.91882515 C-10.7344965 434.97220139 -10.37619488 432.44990962 -10.37752342 428.86129761 C-10.38188374 428.12598068 -10.38624407 427.39066376 -10.39073652 426.63306451 C-10.40175391 424.14956101 -10.39124095 421.66660564 -10.38095093 419.18310547 C-10.38440494 417.39248811 -10.38916776 415.60187288 -10.39513266 413.81126213 C-10.40770764 408.87549159 -10.40144288 403.93989407 -10.39217401 399.00412273 C-10.38541034 393.68708281 -10.39585137 388.37007348 -10.40411377 383.05303955 C-10.41748206 372.63093643 -10.41455961 362.20889798 -10.40587585 351.78679228 C-10.39911186 343.31958706 -10.398177 334.85240001 -10.4014473 326.38519287 C-10.401907 325.18195873 -10.40236669 323.97872459 -10.40284032 322.73902881 C-10.40379946 320.2949926 -10.4047721 317.85095639 -10.4057581 315.40692019 C-10.41432106 292.46729483 -10.40446366 269.52770537 -10.388357 246.58808589 C-10.374953 226.88748197 -10.37728084 207.18693108 -10.39111328 187.48632812 C-10.40715311 164.6310622 -10.413497 141.77582779 -10.40427649 118.92055702 C-10.4033208 116.48530706 -10.40237769 114.0500571 -10.4014473 111.61480713 C-10.40098447 110.41649037 -10.40052164 109.21817362 -10.40004479 107.98354423 C-10.3974501 99.52253012 -10.40183619 91.06153593 -10.40888596 82.6005249 C-10.41728343 72.29508282 -10.41505784 61.98970933 -10.39904372 51.68427515 C-10.39113734 46.42220184 -10.38810955 41.16024304 -10.39799118 35.89817047 C-10.40688978 31.08695314 -10.40208562 26.27595714 -10.38605852 21.46476007 C-10.3826901 19.71851136 -10.38445061 17.97224419 -10.39168589 16.22600722 C-10.40072915 13.86330149 -10.39153368 11.50136694 -10.37752342 9.13870239 C-10.37703637 7.82307878 -10.37654931 6.50745518 -10.37604749 5.15196419 C-10 2 -10 2 -8.69906104 0.04211235 C-5.77201399 -1.75318035 -3.19361233 -0.75485382 0 0 Z " fill="#2D2F32" transform="translate(26,37)"/>
</svg>
