<?xml version="1.0" encoding="UTF-8"?>
<svg version="1.1" xmlns="http://www.w3.org/2000/svg" width="512" height="512">
<path d="M0 0 C2.70604442 2.07466116 5.33579101 4.22970291 7.9375 6.43334961 C8.70489502 7.08110352 8.70489502 7.08110352 9.48779297 7.74194336 C26.87000329 22.60475307 38.49584965 40.35198819 47.9296875 61.05834961 C51.81818189 69.97370039 51.81818189 69.97370039 57.6875 77.62084961 C75.28473822 96.68724501 84.38896763 124.0199983 84.25 149.68334961 C84.24436035 150.78090576 84.2387207 151.87846191 84.23291016 153.00927734 C83.89530364 175.67403925 76.55849704 195.68169716 60.953125 212.24194336 C59.12893615 214.22521845 57.510301 216.24835076 55.9375 218.43334961 C83.776735 240.68657171 113.24438157 261.08534946 143.71679688 279.57055664 C156.76851681 287.51630833 168.96929436 297.45283917 173.9375 312.43334961 C175.87810099 320.95467616 176.22558122 329.3217912 176.19628906 338.02954102 C176.20154602 339.98317314 176.20154602 339.98317314 176.20690918 341.97627258 C176.21593664 345.51128344 176.21252977 349.04617606 176.20615101 352.58118868 C176.20104267 356.30139232 176.20579557 360.02158668 176.20892334 363.74179077 C176.21254812 369.98372187 176.20780222 376.22560543 176.19824219 382.4675293 C176.18735094 389.66124291 176.19089408 396.85484318 176.201895 404.04855406 C176.21099906 410.25273242 176.21223824 416.45687685 176.20701766 422.66105974 C176.20391628 426.35451957 176.20343797 430.04792628 176.21009064 433.7413826 C176.21699228 437.85963808 176.2074006 441.97770098 176.19628906 446.09594727 C176.20033752 447.30349167 176.20438599 448.51103607 176.20855713 449.75517273 C176.14856283 461.8006885 174.69861724 473.43544541 165.9375 482.43334961 C158.98531012 487.76380495 153.0145617 490.68001063 144.10234356 490.69061852 C143.10323979 490.69587763 143.10323979 490.69587763 142.0839521 490.70124298 C139.8541173 490.71054 137.62454464 490.70563815 135.3946991 490.70077515 C133.7790111 490.70451226 132.1633249 490.70911403 130.54764158 490.71450579 C126.10913552 490.72674356 121.6707048 490.72647441 117.23218572 490.72411704 C112.44474142 490.72370907 107.65732134 490.73474609 102.86988831 490.74423218 C93.49095535 490.76084728 84.11204753 490.76634195 74.73310109 490.76745693 C67.10984261 490.76840714 59.48659242 490.77251606 51.86333656 490.77885818 C30.25206108 490.79647177 8.64080546 490.80569684 -12.97047726 490.80419724 C-14.1356226 490.80411732 -15.30076793 490.80403741 -16.5012207 490.80395508 C-17.66778789 490.80387332 -18.83435508 490.80379156 -20.03627279 490.80370732 C-38.94443536 490.80289432 -57.85251829 490.8220351 -76.76065782 490.85023181 C-96.17337995 490.87895267 -115.58606322 490.89277255 -134.99880713 490.89104426 C-145.89841206 490.8903801 -156.7979335 490.895884 -167.6975193 490.91740036 C-176.97725826 490.9356016 -186.25687587 490.93996814 -195.53662495 490.92638151 C-200.27091453 490.91984663 -205.00497123 490.91975351 -209.73923874 490.93708801 C-214.07515389 490.95280064 -218.41065116 490.94997367 -222.74655601 490.93251975 C-224.31315008 490.92944587 -225.87977521 490.93309689 -227.44633267 490.9442399 C-239.25323199 491.02264528 -247.48042228 489.49019696 -256.2734375 481.29272461 C-262.32157736 475.00688493 -265.30247071 468.98979499 -265.32992554 460.09126282 C-265.33845551 458.83678848 -265.34698547 457.58231415 -265.35577393 456.28982544 C-265.35507499 454.91229235 -265.35415198 453.53475937 -265.35302734 452.15722656 C-265.3590164 450.69637205 -265.36582282 449.23552069 -265.37338257 447.77467346 C-265.39101508 443.81572174 -265.39573689 439.85685654 -265.39701414 435.89786935 C-265.39843828 433.42027344 -265.40271294 430.94269935 -265.40800858 428.46510887 C-265.42650238 419.80940741 -265.43468033 411.15376744 -265.43310547 402.49804688 C-265.43190544 394.45007681 -265.45298209 386.40237552 -265.4845928 378.35447341 C-265.51081664 371.42938431 -265.52147016 364.50438264 -265.52019465 357.57924432 C-265.51968665 353.45019239 -265.52527922 349.32137924 -265.54655075 345.19237709 C-265.56603556 341.30409924 -265.56598849 337.41628536 -265.55151749 333.52799034 C-265.54944064 332.10871064 -265.55406255 330.68940111 -265.5662384 329.27017212 C-265.6521002 318.55990643 -264.26458823 309.09398031 -257.8125 300.24584961 C-257.29171875 299.50979492 -256.7709375 298.77374023 -256.234375 298.01538086 C-249.97386874 290.57258475 -243.32541853 285.31255498 -235 280.30834961 C-233.42496704 279.34239868 -233.42496704 279.34239868 -231.81811523 278.35693359 C-228.57330082 276.37052555 -225.31930213 274.40002954 -222.0625 272.43334961 C-218.24913421 270.12227609 -214.43692518 267.80929842 -210.625 265.49584961 C-209.68793213 264.92785645 -208.75086426 264.35986328 -207.78540039 263.7746582 C-162.87625144 240.57980978 -162.87625144 240.57980978 -128.0625 206.43334961 C-124.54011953 207.99702318 -121.79126006 210.1283085 -118.8125 212.55834961 C-117.92046875 213.28280273 -117.0284375 214.00725586 -116.109375 214.75366211 C-115.09617188 215.58510742 -115.09617188 215.58510742 -114.0625 216.43334961 C-123.66419618 241.39775967 -167.45074858 259.96378381 -189.0625 273.43334961 C-189.87960449 273.94285156 -190.69670898 274.45235352 -191.53857422 274.97729492 C-199.74689923 280.08923552 -207.96401147 285.18359482 -216.2578125 290.15600586 C-217.28874023 290.77620605 -218.31966797 291.39640625 -219.38183594 292.03540039 C-221.36343715 293.22569105 -223.34828379 294.41060174 -225.33691406 295.58911133 C-232.57301769 299.93977044 -239.21731374 304.10145696 -243.4375 311.62084961 C-243.91960937 312.4600293 -244.40171875 313.29920898 -244.8984375 314.16381836 C-246.87021037 318.00811379 -247.19233148 320.95471978 -247.20967102 325.22053528 C-247.21682632 326.4276265 -247.22398163 327.63471771 -247.23135376 328.87838745 C-247.23419396 330.21807836 -247.2369057 331.55776954 -247.23950195 332.89746094 C-247.24576772 334.30687121 -247.25241462 335.71627983 -247.25941467 337.12568665 C-247.2804423 341.75557304 -247.29081514 346.38545973 -247.30078125 351.01538086 C-247.30482915 352.60977381 -247.30894608 354.20416659 -247.31313133 355.79855919 C-247.33217935 363.28861193 -247.34641177 370.77865482 -247.3547433 378.26872712 C-247.36451776 386.91305998 -247.39084419 395.55713692 -247.43124419 404.2013796 C-247.46140536 410.88428331 -247.47621213 417.56711365 -247.47952431 424.2500841 C-247.48187462 428.24098898 -247.49083239 432.23162033 -247.51598549 436.22245216 C-247.53927178 439.97769339 -247.54349749 443.73248108 -247.53322411 447.4877758 C-247.53272878 448.86400995 -247.53904846 450.24026646 -247.55278015 451.61643219 C-247.83924416 461.38844453 -247.83924416 461.38844453 -243.0625 469.43334961 C-238.12267141 473.10655548 -233.35839166 473.55920625 -227.33610535 473.55360413 C-225.62192917 473.55566612 -225.62192917 473.55566612 -223.87312317 473.55776978 C-222.62874985 473.5541745 -221.38437653 473.55057922 -220.10229492 473.546875 C-218.78483276 473.54702103 -217.46737061 473.54716705 -216.10998535 473.5473175 C-212.50501081 473.54760405 -208.90006963 473.54173035 -205.29510283 473.53474355 C-201.524806 473.52848629 -197.75450838 473.52790433 -193.98420715 473.52671814 C-186.84804889 473.52361182 -179.71190597 473.51540786 -172.57575446 473.50536865 C-164.45003949 473.4941858 -156.32432379 473.48869159 -148.19860303 473.48367321 C-131.48655971 473.47322467 -114.77453181 473.45563876 -98.0625 473.43334961 C-93.8852138 459.53559387 -89.71268367 445.63641801 -85.5456543 431.73558331 C-83.61079734 425.28138186 -81.67439786 418.82765073 -79.734375 412.375 C-77.86328363 406.15160453 -75.99647997 399.92693261 -74.13232422 393.70145607 C-73.41925939 391.32270239 -72.70474151 388.9443838 -71.98876953 386.56650352 C-70.98869992 383.24419513 -69.99373816 379.92039816 -69 376.59619141 C-68.70077637 375.60644821 -68.40155273 374.61670502 -68.09326172 373.5969696 C-67.82400879 372.69253113 -67.55475586 371.78809265 -67.27734375 370.85624695 C-67.04136475 370.06995753 -66.80538574 369.28366812 -66.56225586 368.47355175 C-65.94353992 366.29779378 -65.94353992 366.29779378 -66.0625 363.43334961 C-66.88975586 363.05001465 -67.71701172 362.66667969 -68.56933594 362.27172852 C-71.64833339 360.84463352 -74.72708157 359.41700348 -77.80566406 357.98901367 C-79.13629416 357.37193801 -80.46702227 356.75507367 -81.79785156 356.13842773 C-83.71445318 355.25031637 -85.63069708 354.36143719 -87.546875 353.47241211 C-88.69897461 352.93825684 -89.85107422 352.40410156 -91.03808594 351.85375977 C-93.39815823 350.74535642 -95.7386867 349.61520315 -98.0625 348.43334961 C-98.3867395 349.41150635 -98.3867395 349.41150635 -98.7175293 350.40942383 C-100.55461731 354.53978726 -103.03621013 358.09146708 -105.58203125 361.81616211 C-106.14468185 362.64775848 -106.70733246 363.47935486 -107.28703308 364.33615112 C-109.1450409 367.08006827 -111.00974434 369.81935521 -112.875 372.55834961 C-114.83400507 375.44292941 -116.79184826 378.32829501 -118.7494812 381.21380615 C-120.10693082 383.21455396 -121.46495164 385.21491433 -122.82351685 387.21490479 C-127.67497301 394.36381032 -132.47776166 401.54383412 -137.26171875 408.73803711 C-139.22682761 411.68447623 -141.19285878 414.63029745 -143.15927124 417.5758667 C-144.42449006 419.47544978 -145.68625327 421.37733917 -146.94448853 423.28155518 C-148.70370387 425.94264508 -150.47540336 428.59500158 -152.25 431.24584961 C-152.76652634 432.03450409 -153.28305267 432.82315857 -153.81523132 433.63571167 C-156.44875596 437.54244872 -158.56343542 440.56679554 -163.0625 442.43334961 C-168.99515989 442.22877513 -168.99515989 442.22877513 -171.7481842 440.17710876 C-173.47064289 437.89184893 -173.44849502 436.50490991 -173.46655273 433.65820312 C-173.47923691 432.69032364 -173.49192108 431.72244415 -173.50498962 430.72523499 C-173.50205399 429.68145187 -173.49911835 428.63766876 -173.49609375 427.56225586 C-173.5013356 426.4883812 -173.50657745 425.41450653 -173.51197815 424.30809021 C-173.51840447 422.03596868 -173.51705351 419.76381391 -173.50854492 417.49169922 C-173.5000411 414.01266261 -173.52877971 410.53527053 -173.56054688 407.05639648 C-173.56215907 404.85001677 -173.561581 402.64363414 -173.55859375 400.43725586 C-173.56982773 399.39549698 -173.58106171 398.3537381 -173.59263611 397.28041077 C-173.52302342 390.07473185 -173.52302342 390.07473185 -171.15649414 386.77880859 C-168.90155104 385.3299347 -167.7225682 384.89178604 -165.0625 384.93334961 C-164.0725 384.91788086 -164.0725 384.91788086 -163.0625 384.90209961 C-160.11223677 385.68576328 -158.9864334 387.08037906 -157.0625 389.43334961 C-156.234375 392.66772461 -156.234375 392.66772461 -155.8125 396.18334961 C-155.66296875 397.35381836 -155.5134375 398.52428711 -155.359375 399.73022461 C-155.26140625 400.62225586 -155.1634375 401.51428711 -155.0625 402.43334961 C-153.30453247 399.8331939 -151.54675893 397.23290732 -149.7890625 394.63256836 C-149.23785233 393.81732697 -148.68664215 393.00208557 -148.11872864 392.16213989 C-145.06762153 387.64813011 -142.02063093 383.131417 -138.98071289 378.60986328 C-128.35366756 362.8104294 -128.35366756 362.8104294 -123.65911865 356.11595154 C-121.97628742 353.71482311 -120.30952741 351.3027882 -118.64447021 348.88931274 C-117.53606007 347.29763199 -116.40339821 345.72292497 -115.27001953 344.14892578 C-110.37199957 337.01932302 -108.79214789 330.99060284 -108.0625 322.43334961 C-107.86450792 321.11087155 -107.66616756 319.78844561 -107.4675293 318.46606445 C-106.98938003 314.68881135 -107.3425041 311.41639991 -107.984375 307.64819336 C-109.59352701 296.70441592 -109.36192762 285.68592101 -109.32324219 274.64941406 C-109.31245022 270.97892003 -109.32322757 267.30890763 -109.3359375 263.63842773 C-109.33461697 261.27970271 -109.33205677 258.92097798 -109.328125 256.56225586 C-109.33217346 255.47771622 -109.33622192 254.39317657 -109.34039307 253.27577209 C-109.27531171 242.65519164 -107.75730912 233.96214876 -101.0625 225.43334961 C-95.64940189 220.36375226 -89.22643107 219.315672 -82.0625 218.43334961 C-82.56998779 218.18278809 -83.07747559 217.93222656 -83.6003418 217.67407227 C-94.63919522 212.17521949 -104.68893579 206.52653497 -114.0625 198.43334961 C-114.60068359 197.97734375 -115.13886719 197.52133789 -115.69335938 197.05151367 C-124.30628103 189.69569488 -131.48546411 181.64477711 -138.0625 172.43334961 C-138.45920898 171.87953613 -138.85591797 171.32572266 -139.26464844 170.75512695 C-150.01018818 155.50150453 -157.31147877 138.42388332 -162.0625 120.43334961 C-162.4028125 119.17522461 -162.743125 117.91709961 -163.09375 116.62084961 C-165.2705517 106.78493082 -165.37269636 96.90307033 -165.4375 86.87084961 C-165.4455365 86.17828064 -165.453573 85.48571167 -165.46185303 84.77215576 C-165.69865635 57.83637562 -157.25939149 32.25866324 -140.0625 11.43334961 C-139.43859375 10.64573242 -138.8146875 9.85811523 -138.171875 9.04663086 C-104.20269385 -31.84484141 -40.37177912 -29.78373126 0 0 Z M-123.75 18.80834961 C-143.45661995 39.38979615 -148.76075509 66.61809044 -148.37109375 94.10913086 C-147.31823902 128.03202297 -130.70575864 159.26795388 -106.4375 182.39819336 C-96.98208396 191.0830259 -79.22075739 205.43334961 -65.875 205.43334961 C-63.76825786 204.49854435 -63.76825786 204.49854435 -62.734375 201.69116211 C-61.71387365 198.45659986 -61.71387365 198.45659986 -63.37109375 195.86303711 C-64.07363281 195.01999023 -64.77617187 194.17694336 -65.5 193.30834961 C-83.08034393 170.77409433 -90.52759111 142.08501371 -87.375 113.74584961 C-84.78182945 93.44192727 -76.03606374 73.82190783 -60.47265625 60.15991211 C-43.36152074 47.04388753 -23.70711621 41.6577599 -2.375 44.12084961 C4.64225393 45.20614524 11.21689991 47.19314958 17.9375 49.43334961 C19.26673059 49.78268459 20.59854315 50.12337631 21.9375 50.43334961 C14.90732715 30.05332726 -8.49928581 13.22301464 -26.91186523 4.18334961 C-60.57222685 -11.60208865 -96.40291042 -7.07698017 -123.75 18.80834961 Z M-49.0625 212.43334961 C-51.9312012 218.0333888 -54.50880679 223.68114779 -56.91796875 229.49194336 C-57.26507401 230.32170181 -57.61217926 231.15146027 -57.96980286 232.00636292 C-59.06583072 234.62677 -60.15831367 237.24863111 -61.25 239.87084961 C-62.35252252 242.51800833 -63.45587603 245.16480084 -64.56233215 247.81031799 C-65.24800606 249.44975496 -65.93141429 251.09014169 -66.61235046 252.73155212 C-68.94983145 258.32068106 -68.94983145 258.32068106 -70.0625 259.43334961 C-70.23265625 258.34795898 -70.4028125 257.26256836 -70.578125 256.14428711 C-70.82216039 254.69884672 -71.06699462 253.25354105 -71.3125 251.80834961 C-71.42207031 251.09549805 -71.53164062 250.38264648 -71.64453125 249.64819336 C-72.49656303 244.76022154 -73.91168396 241.40240082 -77.0625 237.43334961 C-80.20121188 235.86399367 -82.60105822 236.08133858 -86.0625 236.43334961 C-89.53202979 239.14863379 -91.30373015 241.12951001 -92.0625 245.43334961 C-92.15663031 247.06392115 -92.20045552 248.69778476 -92.20776367 250.33105469 C-92.21414352 251.30339554 -92.22052338 252.27573639 -92.22709656 253.27754211 C-92.22820938 254.3254039 -92.2293222 255.37326569 -92.23046875 256.45288086 C-92.23379715 257.54364426 -92.23712555 258.63440765 -92.24055481 259.75822449 C-92.24561963 262.07237324 -92.24796327 264.3865293 -92.24780273 266.70068359 C-92.2499681 270.19438243 -92.26806978 273.6877544 -92.28710938 277.18139648 C-92.31321695 287.79037514 -92.23542706 298.16024525 -90.51782227 308.64550781 C-89.50612448 314.83991911 -90.05693876 320.30076593 -91.625 326.35522461 C-92.19984032 328.73176974 -92.19984032 328.73176974 -92.0625 332.43334961 C-87.01347258 334.86430647 -81.95973637 337.28507487 -76.90136719 339.6965332 C-75.18128414 340.51829298 -73.46252053 341.34282051 -71.74511719 342.17016602 C-69.27620695 343.35895343 -66.80272165 344.53770403 -64.328125 345.71459961 C-63.56131409 346.08645386 -62.79450317 346.45830811 -62.00445557 346.84143066 C-61.28401062 347.18178345 -60.56356567 347.52213623 -59.82128906 347.87280273 C-58.87530853 348.3258075 -58.87530853 348.3258075 -57.91021729 348.78796387 C-55.7593194 349.65318405 -55.7593194 349.65318405 -52.0625 349.43334961 C-50.32014049 347.69462041 -50.32014049 347.69462041 -48.8125 345.37084961 C-46.4289157 342.10937131 -44.09488832 339.40616218 -41 336.80834961 C-29.26988047 326.86030593 -24.364918 313.49438374 -18.625 299.55834961 C-18.17543945 298.48858887 -17.72587891 297.41882813 -17.26269531 296.31665039 C-14.8958429 290.43991559 -13.28059001 285.78274835 -14.0625 279.43334961 C-16.46343293 276.20923968 -18.00500118 274.73884927 -21.875 273.62084961 C-22.9578125 273.52803711 -22.9578125 273.52803711 -24.0625 273.43334961 C-24.1553125 272.10303711 -24.1553125 272.10303711 -24.25 270.74584961 C-25.26800762 266.59551085 -26.70504905 265.02774353 -30.0625 262.43334961 C-32.77413778 262.01348015 -32.77413778 262.01348015 -35.0625 262.43334961 C-34.835625 261.89709961 -34.60875 261.36084961 -34.375 260.80834961 C-33.90564488 257.24125066 -35.15754736 255.41777542 -37.0625 252.43334961 C-40.25762368 250.0395487 -40.25762368 250.0395487 -44.0625 249.43334961 C-43.60025024 248.37422363 -43.60025024 248.37422363 -43.12866211 247.29370117 C-41.74057948 244.09524747 -40.37014508 240.88952579 -39 237.68334961 C-38.51466797 236.57217773 -38.02933594 235.46100586 -37.52929688 234.31616211 C-37.07490234 233.24624023 -36.62050781 232.17631836 -36.15234375 231.07397461 C-35.72816162 230.08945313 -35.30397949 229.10493164 -34.86694336 228.09057617 C-34.01303202 225.26994762 -33.85790134 224.09527006 -35.0625 221.43334961 C-37.20671879 219.69261285 -39.26260647 218.18243095 -41.5625 216.68334961 C-42.16964844 216.27213867 -42.77679688 215.86092773 -43.40234375 215.43725586 C-46.0199032 213.34763988 -46.0199032 213.34763988 -49.0625 212.43334961 Z M33.1875 229.30834961 C16.54885615 235.37249867 -1.25268486 234.1555415 -18.0625 229.43334961 C-18.95880674 231.31920306 -19.82883875 233.21756038 -20.6875 235.12084961 C-21.17476562 236.1765918 -21.66203125 237.23233398 -22.1640625 238.32006836 C-23.3153881 241.34476396 -23.3153881 241.34476396 -22.421875 244.08178711 C-21.03594098 246.47929367 -19.57854826 248.35180464 -17.6875 250.37084961 C-15.55331108 252.71100749 -13.82804949 254.80393267 -12.125 257.49584961 C-10.2229637 260.2048104 -8.59198723 261.74469797 -6.0625 263.80834961 C-0.79851585 268.27832498 1.74408162 272.98967951 2.8125 279.80834961 C3.38312326 290.2085687 -0.81557555 299.33717005 -4.86523438 308.68261719 C-5.80713314 310.85845188 -6.73276288 313.04066204 -7.65625 315.22436523 C-16.77437423 336.62096765 -16.77437423 336.62096765 -23.9375 344.18334961 C-24.79601562 345.09084961 -25.65453125 345.99834961 -26.5390625 346.93334961 C-29.33591319 349.70422336 -32.23633179 352.282573 -35.25390625 354.80834961 C-37.63359638 356.94647292 -39.58901172 359.32865781 -41.54296875 361.85522461 C-43.0625 363.43334961 -43.0625 363.43334961 -45.43840027 364.39779663 C-49.53856678 367.57835644 -50.18144242 371.70991401 -51.56762695 376.58032227 C-52.03689354 378.14401802 -52.03689354 378.14401802 -52.51564026 379.73930359 C-53.54537516 383.18693926 -54.5481384 386.64180967 -55.55078125 390.09741211 C-56.25947942 392.49017076 -56.96980278 394.88244861 -57.6816864 397.27426147 C-59.36009783 402.92838921 -61.02146012 408.58730864 -62.67483824 414.24880254 C-64.74219724 421.32353876 -66.83772025 428.38987694 -68.93164062 435.45678711 C-71.70051918 444.81626647 -74.46266767 454.17767907 -77.2043457 463.54516602 C-77.49571411 464.53738663 -77.78708252 465.52960724 -78.08728027 466.55189514 C-78.3493074 467.44924881 -78.61133453 468.34660248 -78.88130188 469.27114868 C-79.11078679 470.05538523 -79.3402717 470.83962177 -79.5767107 471.64762306 C-80.10625004 473.2857342 -80.10625004 473.2857342 -80.0625 474.43334961 C-51.14236539 474.5034426 -22.22224351 474.55633926 6.69795895 474.58878613 C9.37163742 474.59184564 12.0453158 474.5949696 14.71899414 474.59814453 C15.71581359 474.59932493 15.71581359 474.59932493 16.73277081 474.60052917 C27.48378311 474.6135723 38.23474713 474.63722009 48.98573082 474.664808 C60.02260296 474.69289267 71.05944851 474.70930788 82.09635454 474.71561509 C88.29336408 474.71952471 94.49026423 474.72870821 100.68723869 474.75053978 C106.52220279 474.77092911 112.35701263 474.77717839 118.19200897 474.77267265 C120.3313258 474.77349675 122.47064788 474.7794477 124.60993385 474.79096603 C127.53656627 474.80594828 130.46262045 474.80228219 133.38926697 474.79411316 C134.65146581 474.80722095 134.65146581 474.80722095 135.93916363 474.82059354 C142.01023103 474.77496297 148.63190179 474.0752204 153.53277057 470.15839165 C159.91873747 463.14053801 159.22613362 454.45070982 159.19628906 445.57250977 C159.1997937 444.28871933 159.20329834 443.00492889 159.20690918 441.68223572 C159.21599218 438.17592065 159.21250541 434.66972387 159.20615101 431.16340685 C159.2010676 427.4827446 159.20578915 423.80209211 159.20892334 420.12142944 C159.2125571 413.93957716 159.20778036 407.75777274 159.19824219 401.57592773 C159.1873684 394.44648636 159.19087775 387.31715948 159.201895 380.18772089 C159.21099625 374.0507496 159.21223903 367.91381262 159.20701766 361.77683675 C159.20391228 358.11854578 159.20344879 354.46030847 159.21009064 350.80202103 C159.21698638 346.7189389 159.20740516 342.63605134 159.19628906 338.55297852 C159.20236176 336.75253838 159.20236176 336.75253838 159.20855713 334.91572571 C159.16660849 326.57502614 158.75381595 318.6278368 154.3125 311.30834961 C153.64347656 310.15979492 153.64347656 310.15979492 152.9609375 308.98803711 C147.73191211 302.38614019 140.98376508 297.98745943 133.8125 293.74584961 C113.65129699 281.53500086 94.00878838 268.28300976 74.9375 254.43334961 C73.76888428 253.58716064 73.76888428 253.58716064 72.57666016 252.72387695 C62.18977287 245.18733533 52.0927588 237.45551757 42.2734375 229.19116211 C38.66457077 226.47545972 37.13103677 227.70993382 33.1875 229.30834961 Z " fill="#000000" transform="translate(301.0625,21.566650390625)"/>
<path d="M0 0 C1.32837891 0.43119141 1.32837891 0.43119141 2.68359375 0.87109375 C8.803088 3.13199064 11.22317175 6.21647361 14 12 C14.49242187 12.98613281 14.98484375 13.97226563 15.4921875 14.98828125 C18.94138255 22.15265405 21.85287382 29.3430996 24 37 C24.18336914 37.64050293 24.36673828 38.28100586 24.55566406 38.94091797 C29.76638255 57.7779739 30.48716488 79.14893356 25 98 C24.6596875 99.22203125 24.319375 100.4440625 23.96875 101.703125 C19.83740927 115.26955469 13.52175385 127.42445521 4 138 C3.40960938 138.68320313 2.81921875 139.36640625 2.2109375 140.0703125 C-3.58463544 146.35912569 -13.29671026 154.64280383 -22 156 C-22.08636719 154.9378125 -22.17273438 153.875625 -22.26171875 152.78125 C-23.17566244 143.06887607 -24.40471168 136.01861926 -31.875 129.1875 C-38.77405096 124.35816433 -44.70763132 122.98389285 -53 124 C-60.20716809 125.81895195 -65.00095796 129.82298999 -69 136 C-71.60319274 140.8753061 -73.82491364 145.92259475 -76 151 C-81.10727718 149.29757427 -83.15751506 144.38118547 -86 140 C-86.58265625 139.12085938 -87.1653125 138.24171875 -87.765625 137.3359375 C-102.67359976 113.49660849 -107.67921643 83.352994 -101.54345703 55.96191406 C-96.41245216 35.60547784 -85.25651579 17.01686297 -67 6 C-45.99032294 -6.00899555 -22.79980167 -8.2079286 0 0 Z " fill="#FECD33" transform="translate(316,69)"/>
<path d="M0 0 C4.31278094 3.36896946 7.72234962 6.81449607 10.875 11.3125 C11.30063232 11.91715088 11.72626465 12.52180176 12.16479492 13.14477539 C19.92241654 24.47348061 25.29690335 36.80070473 29 50 C29.3196875 51.12019531 29.639375 52.24039063 29.96875 53.39453125 C35.83386524 77.58813163 32.6918668 105.4524932 19.6875 126.875 C15.96466864 132.36389612 11.59292303 137.2290567 7 142 C6.45601563 142.58652344 5.91203125 143.17304688 5.3515625 143.77734375 C4 145 4 145 2.125 145.0625 C-2.7108012 142.6445994 -5.35329891 137.51089925 -8 133 C-9.70509716 134.54327774 -11.3886674 136.1103675 -13.0625 137.6875 C-14.00222656 138.55761719 -14.94195312 139.42773438 -15.91015625 140.32421875 C-18.27292598 142.77489641 -18.27292598 142.77489641 -17.96875 145.59375 C-17.01186352 147.97053255 -15.99052987 149.78161479 -14.4375 151.8125 C-13.98246094 152.41707031 -13.52742188 153.02164063 -13.05859375 153.64453125 C-12.70925781 154.09183594 -12.35992187 154.53914062 -12 155 C-30.00873045 162.83768667 -47.96377789 163.6441597 -66.91015625 158.9140625 C-67.94462891 158.46160156 -67.94462891 158.46160156 -69 158 C-70 155 -70 155 -69.29663086 152.91943359 C-67.76148503 150.6469206 -66.8161422 150.17960881 -64.25390625 149.2890625 C-63.50423584 149.01707031 -62.75456543 148.74507812 -61.98217773 148.46484375 C-61.18368408 148.18769531 -60.38519043 147.91054687 -59.5625 147.625 C-48.47645461 143.5374936 -39.10096225 138.60098884 -30 131 C-29.01773438 130.23623047 -29.01773438 130.23623047 -28.015625 129.45703125 C-9.29777197 114.29557029 2.53087846 87.77666654 5.33447266 64.18554688 C6.92837041 46.55215546 6.74217655 29.53541349 2.54003906 12.29736328 C1.58192715 8.22148938 0.79779368 4.10976491 0 0 Z " fill="#FDCC33" transform="translate(353,94)"/>
<path d="M0 0 C8.37560973 5.94443442 13.8728778 13.77272724 16.14453125 23.8046875 C17.85171893 34.52459575 15.92655317 43.81897635 9.6640625 52.73828125 C8.42331001 54.78239866 7.86433849 56.14482433 7.578125 58.52734375 C8.63569978 60.78918393 8.63569978 60.78918393 10.32421875 63.01171875 C10.91396484 63.86507812 11.50371094 64.7184375 12.11132812 65.59765625 C13.37217533 67.37189458 14.63774349 69.14278825 15.90820312 70.91015625 C19.70510451 76.4253936 21.54347014 79.79237764 20.578125 86.52734375 C19.078125 89.02734375 19.078125 89.02734375 16.578125 90.52734375 C11.15985577 91.30138221 11.15985577 91.30138221 8.578125 90.52734375 C3.40442133 85.79859245 -0.21153485 80.19535639 -4.00732422 74.37133789 C-5.17151306 72.59039743 -6.35266846 70.8215615 -7.53515625 69.05273438 C-8.28491349 67.9108511 -9.03364702 66.76829486 -9.78125 65.625 C-10.45639648 64.59898682 -11.13154297 63.57297363 -11.82714844 62.51586914 C-13.49091893 59.39795509 -14.15628196 57.03780433 -14.421875 53.52734375 C-12.9809635 49.92506501 -10.89433796 48.05125002 -7.921875 45.71484375 C-2.994071 41.65174955 -1.75797338 37.21613083 -0.984375 31.02734375 C-1.71687237 25.16736483 -3.91573708 20.54088916 -8.421875 16.65234375 C-13.52198398 13.03976656 -17.95408268 10.98291258 -24.44140625 11.7734375 C-31.40950995 13.27897425 -36.33757563 16.62780021 -40.421875 22.52734375 C-42.28133819 28.10573331 -42.43573462 34.37289206 -39.921875 39.71484375 C-39.426875 40.64296875 -38.931875 41.57109375 -38.421875 42.52734375 C-37.75351957 46.45297165 -37.77452911 49.55632491 -40.046875 52.96484375 C-42.9877882 54.89965507 -44.89837956 55.45543568 -48.421875 55.52734375 C-53.35884604 53.84154876 -55.0703306 50.15001065 -57.40625 45.78125 C-61.0642685 37.66326279 -60.93849794 25.36992471 -57.859375 17.02734375 C-52.76340391 6.60537509 -45.15172862 -0.75994941 -34.09375 -4.640625 C-22.3666337 -7.29793965 -10.3482514 -6.29240448 0 0 Z " fill="#2CA6ED" transform="translate(75.421875,5.47265625)"/>
<path d="M0 0 C7.21971696 5.82235239 12.86024604 13.90373482 13.99365234 23.26171875 C14.95804434 35.47194801 13.38056413 45.76905185 5.5625 55.625 C-1.46775709 62.91283117 -10.23193844 67.0147273 -20.25 68.25 C-24.63004852 68.19153439 -28.90288762 67.75112545 -33.25 67.25 C-34.57 67.25 -35.89 67.25 -37.25 67.25 C-39.26792676 69.33742327 -39.26792676 69.33742327 -41.0625 72.125 C-41.75214844 73.12015625 -42.44179688 74.1153125 -43.15234375 75.140625 C-43.84457031 76.16671875 -44.53679687 77.1928125 -45.25 78.25 C-46.53776733 80.12768024 -47.82913721 82.0028976 -49.125 83.875 C-49.67929687 84.69226563 -50.23359375 85.50953125 -50.8046875 86.3515625 C-52.25 88.25 -52.25 88.25 -54.25 89.25 C-61.3021327 89.81872038 -61.3021327 89.81872038 -64.75 87.75 C-66.90013867 84.16643554 -67.11624373 81.25209384 -66.25 77.25 C-64.0616946 72.94535813 -61.34120232 69.06693628 -58.5625 65.125 C-57.4806543 63.53751953 -57.4806543 63.53751953 -56.37695312 61.91796875 C-46.85051362 48.05025681 -46.85051362 48.05025681 -43.25 46.25 C-37.49859529 45.87285871 -35.16636051 46.2522192 -30.25 49.25 C-23.99361345 50.88052545 -18.91330314 50.3445053 -13.25 47.25 C-8.82553437 44.41714079 -5.8987306 41.28778793 -4.25 36.25 C-3.36218585 29.25599743 -3.5431524 23.6360043 -7.83984375 17.8671875 C-12.26493397 12.7924303 -16.58365334 10.78509137 -23.25 10.25 C-28.74993377 10.72999422 -32.9280956 12.8121215 -37.25 16.25 C-38.62013339 17.88654821 -39.9620272 19.54803595 -41.25 21.25 C-44.38871188 22.81935594 -46.78855822 22.60201103 -50.25 22.25 C-53.87467025 19.70501876 -55.06545413 18.24654771 -55.875 13.875 C-54.690667 7.00586862 -50.88595099 3.49332192 -45.5 -0.5 C-31.31857117 -9.73973035 -13.99537415 -9.61033197 0 0 Z " fill="#2CA6ED" transform="translate(474.25,6.75)"/>
<path d="M0 0 C9.55345623 5.57658712 16.59445077 13.75879975 19.49609375 24.45703125 C20.8306876 36.6344652 19.72313965 45.9807575 12.24609375 55.83203125 C11.7253125 56.45851562 11.20453125 57.085 10.66796875 57.73046875 C9.21529726 59.52295505 9.21529726 59.52295505 9.49609375 62.45703125 C10.30072031 64.27513248 10.30072031 64.27513248 11.4296875 66.15234375 C11.83123047 66.8690625 12.23277344 67.58578125 12.64648438 68.32421875 C13.49352504 69.8100746 14.34752429 71.29198869 15.20898438 72.76953125 C18.03969901 77.86028845 19.72525247 82.55416795 19.49609375 88.45703125 C18.12109375 91.51953125 18.12109375 91.51953125 15.49609375 93.45703125 C12.35749827 94.1525808 9.58963407 94.3829148 6.49609375 93.45703125 C3.47732102 90.07597538 1.34951378 86.56179355 -0.703125 82.53515625 C-1.27224609 81.42785156 -1.84136719 80.32054687 -2.42773438 79.1796875 C-3.00974609 78.03371094 -3.59175781 76.88773437 -4.19140625 75.70703125 C-5.36041996 73.41977534 -6.53091075 71.13327354 -7.703125 68.84765625 C-8.21705811 67.83735352 -8.73099121 66.82705078 -9.26049805 65.78613281 C-10.30375652 63.56025721 -10.30375652 63.56025721 -11.50390625 62.45703125 C-12.07848379 59.35561841 -12.1467879 56.54898586 -11.50390625 53.45703125 C-9.52907025 50.90318574 -7.29745142 49.06869193 -4.50390625 47.45703125 C-3.84390625 47.45703125 -3.18390625 47.45703125 -2.50390625 47.45703125 C-2.21515625 46.87953125 -1.92640625 46.30203125 -1.62890625 45.70703125 C-0.94657259 44.34236393 -0.23186921 42.99242867 0.5390625 41.67578125 C2.72601978 36.60561089 2.47998996 30.18031541 0.62109375 25.03515625 C-1.99305825 20.46039025 -5.34296128 16.9677806 -10.50390625 15.45703125 C-16.37493786 14.60791511 -21.73920412 14.5476807 -27.00390625 17.51953125 C-30.65168431 20.24776526 -33.20181273 23.03980261 -34.50390625 27.45703125 C-35.17067251 33.4066379 -34.75565441 37.93165726 -32.50390625 43.45703125 C-32.57817352 47.69026554 -32.83805274 49.71508019 -35.69140625 52.89453125 C-39.06665804 54.76967113 -40.70466965 55.16938811 -44.50390625 54.45703125 C-49.07285281 51.05688497 -51.45031048 46.99041973 -52.50390625 41.45703125 C-53.57702726 29.75883297 -53.00006686 19.54361629 -45.51953125 9.8984375 C-34.00351999 -2.53640444 -15.77861838 -6.79657382 0 0 Z " fill="#000000" transform="translate(52.50390625,130.54296875)"/>
<path d="M0 0 C0.68191406 0.40089844 1.36382812 0.80179687 2.06640625 1.21484375 C9.62228305 6.16129061 14.75232412 14.31676157 17 23 C18.2259352 34.19320164 17.85297322 45.383176 11.01171875 54.7109375 C4.7094356 62.1343522 -1.46286006 66.79386527 -11 69 C-13.98654657 69.21776902 -16.94521734 69.19166611 -19.9375 69.125 C-20.71673828 69.11597656 -21.49597656 69.10695313 -22.29882812 69.09765625 C-24.19935447 69.07433691 -26.09972008 69.03847586 -28 69 C-28.34780518 69.62567871 -28.69561035 70.25135742 -29.05395508 70.89599609 C-30.6327975 73.72649787 -32.22248865 76.55075839 -33.8125 79.375 C-34.35970703 80.35984375 -34.90691406 81.3446875 -35.47070312 82.359375 C-36.00244141 83.30039063 -36.53417969 84.24140625 -37.08203125 85.2109375 C-37.81256714 86.51490479 -37.81256714 86.51490479 -38.55786133 87.84521484 C-40 90 -40 90 -43 92 C-49.90410959 92.65753425 -49.90410959 92.65753425 -53.5 90.5 C-55.65821603 86.90297328 -55.78115488 84.02364095 -55 80 C-53.25260952 75.88059505 -51.14872183 72.00804082 -48.92089844 68.13549805 C-47.87787078 66.31750376 -46.86723589 64.48416055 -45.859375 62.64648438 C-39.58885082 51.40608076 -39.58885082 51.40608076 -34 48 C-30.42354907 48.06274475 -27.87976244 48.60642207 -24.625 50.0625 C-19.96942576 51.72520508 -15.42829452 51.95763728 -10.78125 50.125 C-5.94845629 47.38401252 -2.91633391 44.23725347 -1 39 C0.55254269 32.58282356 -0.17435414 27.96034674 -3 22 C-6.10820093 17.06344558 -9.1565851 14.87402618 -14.66796875 13.34765625 C-19.36725389 12.6470928 -22.98697096 13.60217942 -26.87890625 16.3046875 C-29.69165863 18.64966033 -32.09373792 21.10779861 -34.5 23.875 C-37 26 -37 26 -40.5 26.625 C-44.9297642 25.83397068 -46.39210172 24.63525215 -49 21 C-49.81910438 17.72358247 -49.42872917 15.8816348 -47.9609375 12.86328125 C-43.54973383 5.60574225 -36.80066374 -0.90911731 -28.55859375 -3.5625 C-18.89986243 -5.21406933 -8.4238597 -5.49531952 0 0 Z " fill="#000000" transform="translate(495,116)"/>
<path d="M0 0 C0.77444458 -0.00700928 1.54888916 -0.01401855 2.34680176 -0.02124023 C4.90344232 -0.03882686 7.45897344 -0.02719576 10.015625 -0.01367188 C11.79394747 -0.01636661 13.57226851 -0.02024888 15.35058594 -0.02526855 C19.07631468 -0.03116448 22.80165964 -0.02259774 26.52734375 -0.00390625 C31.30261787 0.01888354 36.07699276 0.00576094 40.85223389 -0.01819611 C44.52399468 -0.03265162 48.19554235 -0.02804927 51.86730957 -0.01768494 C53.62797146 -0.01501696 55.38865271 -0.01828992 57.14929199 -0.02760315 C59.61046587 -0.03776495 62.0701845 -0.0222744 64.53125 0 C65.2586438 -0.00809692 65.9860376 -0.01619385 66.73547363 -0.02453613 C70.15610843 0.03280553 71.95354351 0.27511167 74.69042969 2.40148926 C76.58222966 4.94289909 77.18999162 6.34097619 77.265625 9.51757812 C74.98851657 15.15613234 74.98851657 15.15613234 72.265625 16.51757812 C69.75446098 16.63126759 67.27037061 16.68538479 64.75830078 16.69458008 C63.98414825 16.70115128 63.20999573 16.70772247 62.41238403 16.7144928 C59.84523426 16.73423717 57.27814297 16.74589003 54.7109375 16.75585938 C53.83515926 16.7599349 52.95938103 16.76401043 52.05706406 16.76820946 C47.42297348 16.78907367 42.78891256 16.80337465 38.15478516 16.81274414 C33.36386117 16.82381778 28.57340047 16.85822745 23.78264046 16.89791584 C20.10235722 16.92403424 16.42218525 16.93243164 12.74181747 16.93602562 C10.97554261 16.94090288 9.20927309 16.9525492 7.44308853 16.97106361 C4.97226242 16.99535736 2.50264673 16.99450855 0.03173828 16.98754883 C-0.69879761 17.00035889 -1.4293335 17.01316895 -2.18200684 17.02636719 C-5.63726577 16.99086143 -7.42051071 16.76132654 -10.18655396 14.61320496 C-11.86468501 12.34114872 -12.27795313 11.3065787 -12.234375 8.51757812 C-12.24984375 7.52757812 -12.24984375 7.52757812 -12.265625 6.51757812 C-10.59962649 0.24558375 -5.60949142 -0.06244159 0 0 Z " fill="#000000" transform="translate(343.734375,399.482421875)"/>
<path d="M0 0 C3.49406769 1.66762322 4.82670681 2.74006022 7 6 C7.86152236 13.35607558 5.4149841 18.82967601 2.5 25.5 C2.07074219 26.51320312 1.64148438 27.52640625 1.19921875 28.5703125 C0.14541735 31.05260024 -0.9211241 33.52853251 -2 36 C-5.75902623 35.17285372 -8.38338623 33.66386957 -11.625 31.5625 C-12.58664062 30.94503906 -13.54828125 30.32757813 -14.5390625 29.69140625 C-17 28 -17 28 -19 26 C-18.66481739 20.89608301 -16.76825237 16.504098 -14.75 11.875 C-14.46253906 11.17246094 -14.17507813 10.46992188 -13.87890625 9.74609375 C-11.07925285 3.27877214 -7.64165346 -1.1144078 0 0 Z " fill="#FACA33" transform="translate(271,208)"/>
<path d="M0 0 C2.75171298 1.90503206 3.71801879 3.2856476 4.9375 6.375 C5.0221688 9.93108969 3.83947665 12.00233435 2 15 C-1.20841035 16.60420518 -4.5193987 16.47462745 -8 16 C-10.5 14.5 -10.5 14.5 -12 12 C-12.791013 7.97901723 -12.62153384 5.03588973 -10.5 1.5 C-6.97785199 -0.6132888 -4.00752241 -0.81467088 0 0 Z " fill="#000000" transform="translate(436,220)"/>
<path d="M0 0 C2.75171298 1.90503206 3.71801879 3.2856476 4.9375 6.375 C5.0221688 9.93108969 3.83947665 12.00233435 2 15 C-1.20841035 16.60420518 -4.5193987 16.47462745 -8 16 C-10.5 14.5 -10.5 14.5 -12 12 C-12.791013 7.97901723 -12.62153384 5.03588973 -10.5 1.5 C-6.97785199 -0.6132888 -4.00752241 -0.81467088 0 0 Z " fill="#000000" transform="translate(404,108)"/>
<path d="M0 0 C2.45427827 1.76204594 3.56553489 3.16003412 4.9375 5.8125 C5.03806728 9.33235464 3.5718018 11.91461128 2 15 C-1.20841035 16.60420518 -4.5193987 16.47462745 -8 16 C-10.5 14.5 -10.5 14.5 -12 12 C-12.791013 7.97901723 -12.62153384 5.03588973 -10.5 1.5 C-6.98210132 -0.61073921 -4.00324076 -0.82202069 0 0 Z " fill="#000000" transform="translate(140,376)"/>
<path d="M0 0 C2.5 1.5 2.5 1.5 4 4 C4.791013 8.02098277 4.62153384 10.96411027 2.5 14.5 C-1.03588973 16.62153384 -3.97901723 16.791013 -8 16 C-10.5 14.5 -10.5 14.5 -12 12 C-12.791013 7.97901723 -12.62153384 5.03588973 -10.5 1.5 C-6.96411027 -0.62153384 -4.02098277 -0.791013 0 0 Z " fill="#000000" transform="translate(84,236)"/>
<path d="M0 0 C2.5 1.5 2.5 1.5 4 4 C4.791013 8.02098277 4.62153384 10.96411027 2.5 14.5 C-1.03588973 16.62153384 -3.97901723 16.791013 -8 16 C-10.5 14.5 -10.5 14.5 -12 12 C-12.791013 7.97901723 -12.62153384 5.03588973 -10.5 1.5 C-6.96411027 -0.62153384 -4.02098277 -0.791013 0 0 Z " fill="#000000" transform="translate(108,108)"/>
</svg>
